<?xml version="1.0" standalone="no"?>
<!DOCTYPE svg PUBLIC "-//W3C//DTD SVG 1.1//EN" "http://www.w3.org/Graphics/SVG/1.1/DTD/svg11.dtd" >
<svg xmlns="http://www.w3.org/2000/svg">
<metadata></metadata>
<defs>
<font id="kubikami_bigregular" horiz-adv-x="384" >
<font-face units-per-em="1024" ascent="819" descent="-205" />
<missing-glyph horiz-adv-x="128" />
<glyph horiz-adv-x="0" />
<glyph horiz-adv-x="128" />
<glyph unicode=" "  horiz-adv-x="128" />
<glyph unicode="&#x09;" horiz-adv-x="128" />
<glyph unicode="&#xa0;" horiz-adv-x="128" />
<glyph unicode="!" horiz-adv-x="192" d="M0 0v64h128v-64h-128zM0 128v320h128v-320h-128z" />
<glyph unicode="&#x22;" horiz-adv-x="256" d="M0 320v128h64v-128h-64zM128 320v128h64v-128h-64z" />
<glyph unicode="#" horiz-adv-x="512" d="M256 128v64h-64v-64h64zM64 0v64h-64v64h128v64h-64v64h128v64h64v-64h64v64h64v-64h64v-64h-128v-64h64v-64h-128v-64h-64v64h-64v-64h-64z" />
<glyph unicode="$" d="M128 0v64h-64v64h128v64h-128v64h-64v64h64v64h64v64h64v-64h64v-64h-128v-64h128v-64h64v-64h-64v-64h-64v-64h-64z" />
<glyph unicode="%" d="M0 0v64h64v-64h-64zM64 64v64h64v-64h-64zM192 0v128h128v-128h-128zM128 128v64h64v-64h-64zM192 192v64h64v-64h-64zM0 192v128h128v-128h-128zM256 256v64h64v-64h-64z" />
<glyph unicode="&#x26;" horiz-adv-x="512" d="M320 0v64h128v-64h-128zM192 64v128h-64v-128h64zM384 192v64h64v-64h-64zM192 256v64h-64v-64h64zM64 0v64h-64v128h64v64h-64v64h64v64h192v-64h64v-64h-64v-64h128v-64h-64v-64h-64v-64h-192z" />
<glyph unicode="'" horiz-adv-x="128" d="M0 320v128h64v-128h-64z" />
<glyph unicode="(" horiz-adv-x="256" d="M128 -128v64h-64v64h-64v384h64v64h64v64h64v-128h-64v-384h64v-128h-64z" />
<glyph unicode=")" horiz-adv-x="256" d="M0 -128v128h64v384h-64v128h64v-64h64v-64h64v-384h-64v-64h-64v-64h-64z" />
<glyph unicode="*" horiz-adv-x="320" d="M64 256v64h64v-64h-64zM192 256v64h64v-64h-64zM128 320v64h64v-64h-64zM64 384v64h64v-64h-64zM192 384v64h64v-64h-64z" />
<glyph unicode="+" d="M128 64v128h-128v64h128v128h64v-128h128v-64h-128v-128h-64z" />
<glyph unicode="," horiz-adv-x="192" d="M0 -128v64h64v-64h-64zM64 -64v64h-64v128h128v-192h-64z" />
<glyph unicode="-" horiz-adv-x="256" d="M0 128v128h192v-128h-192z" />
<glyph unicode="." horiz-adv-x="192" d="M0 0v128h128v-128h-128z" />
<glyph unicode="/" horiz-adv-x="256" d="M0 0v192h64v128h64v128h64v-192h-64v-128h-64v-128h-64z" />
<glyph unicode="0" d="M192 64v320h-64v-320h64zM64 0v64h-64v320h64v64h192v-64h64v-320h-64v-64h-192z" />
<glyph unicode="1" horiz-adv-x="256" d="M64 0v320h-64v64h64v64h128v-448h-128z" />
<glyph unicode="2" d="M0 0v128h64v64h64v64h64v128h-64v-64h-128v64h64v64h192v-64h64v-128h-64v-64h-64v-64h-64v-64h192v-64h-320z" />
<glyph unicode="3" d="M64 0v64h-64v64h128v-64h64v128h-64v64h64v128h-64v-64h-128v64h64v64h192v-64h64v-128h-64v-64h64v-128h-64v-64h-192z" />
<glyph unicode="4" d="M192 0v128h-128v64h-64v256h128v-256h64v256h128v-448h-128z" />
<glyph unicode="5" d="M64 0v64h-64v64h128v-64h64v192h-192v192h320v-64h-192v-64h128v-64h64v-192h-64v-64h-192z" />
<glyph unicode="6" d="M192 64v192h-64v-192h64zM64 0v64h-64v320h64v64h128v-64h-64v-64h128v-64h64v-192h-64v-64h-192z" />
<glyph unicode="7" d="M64 0v128h64v128h64v128h-192v64h320v-192h-64v-128h-64v-128h-128z" />
<glyph unicode="8" d="M192 64v128h-64v-128h64zM192 256v128h-64v-128h64zM64 0v64h-64v128h64v64h-64v128h64v64h192v-64h64v-128h-64v-64h64v-128h-64v-64h-192z" />
<glyph unicode="9" d="M192 256v128h-64v-128h64zM64 0v64h64v64h64v64h-128v64h-64v128h64v64h192v-64h64v-256h-64v-64h-64v-64h-128z" />
<glyph unicode=":" horiz-adv-x="192" d="M0 0v128h128v-128h-128zM0 256v128h128v-128h-128z" />
<glyph unicode=";" horiz-adv-x="192" d="M0 -128v64h64v-64h-64zM64 -64v64h-64v128h128v-192h-64zM0 256v128h128v-128h-128z" />
<glyph unicode="&#x3c;" horiz-adv-x="320" d="M128 64v64h-64v64h-64v64h64v64h64v64h128v-64h-64v-64h-64v-64h64v-64h64v-64h-128z" />
<glyph unicode="=" horiz-adv-x="320" d="M0 128v64h256v-64h-256zM0 256v64h256v-64h-256z" />
<glyph unicode="&#x3e;" horiz-adv-x="320" d="M0 64v64h64v64h64v64h-64v64h-64v64h128v-64h64v-64h64v-64h-64v-64h-64v-64h-128z" />
<glyph unicode="?" d="M128 0v64h128v-64h-128zM128 128v64h64v192h-64v-128h-128v128h64v64h192v-64h64v-192h-64v-64h-128z" />
<glyph unicode="@" horiz-adv-x="448" d="M64 0v64h192v-64h-192zM0 64v256h64v-256h-64zM128 128v128h64v-64h64v64h64v64h64v-128h-64v-64h-192zM192 256v64h-128v64h256v-64h-64v-64h-64z" />
<glyph unicode="A" horiz-adv-x="448" d="M256 192v192h-128v-192h128zM0 0v384h64v64h256v-64h64v-384h-128v128h-128v-128h-128z" />
<glyph unicode="B" horiz-adv-x="448" d="M256 64v128h-128v-128h128zM256 256v128h-128v-128h128zM0 0v448h320v-64h64v-128h-64v-64h64v-128h-64v-64h-320z" />
<glyph unicode="C" horiz-adv-x="448" d="M64 0v64h-64v320h64v64h256v-64h64v-64h-128v64h-128v-320h128v64h128v-64h-64v-64h-256z" />
<glyph unicode="D" horiz-adv-x="448" d="M256 64v320h-128v-320h128zM0 0v448h320v-64h64v-320h-64v-64h-320z" />
<glyph unicode="E" d="M0 0v448h320v-64h-192v-128h128v-64h-128v-128h192v-64h-320z" />
<glyph unicode="F" d="M0 0v448h320v-64h-192v-128h128v-64h-128v-192h-128z" />
<glyph unicode="G" horiz-adv-x="448" d="M64 0v64h-64v320h64v64h256v-64h64v-64h-128v64h-128v-320h128v64h-64v64h192v-128h-64v-64h-256z" />
<glyph unicode="H" horiz-adv-x="448" d="M0 0v448h128v-192h128v192h128v-448h-128v192h-128v-192h-128z" />
<glyph unicode="I" horiz-adv-x="192" d="M0 0v448h128v-448h-128z" />
<glyph unicode="J" horiz-adv-x="448" d="M64 0v64h-64v128h128v-128h128v384h128v-384h-64v-64h-256z" />
<glyph unicode="K" horiz-adv-x="448" d="M0 0v448h128v-128h64v64h64v64h128v-128h-64v-64h-64v-64h64v-64h64v-128h-128v64h-64v64h-64v-128h-128z" />
<glyph unicode="L" horiz-adv-x="320" d="M0 0v448h128v-384h128v-64h-256z" />
<glyph unicode="M" horiz-adv-x="512" d="M0 0v448h128v-64h64v-64h64v64h64v64h128v-448h-128v256h-64v-64h-64v64h-64v-256h-128z" />
<glyph unicode="N" horiz-adv-x="448" d="M0 0v448h128v-64h64v-64h64v128h128v-448h-128v192h-64v64h-64v-256h-128z" />
<glyph unicode="O" horiz-adv-x="448" d="M256 64v320h-128v-320h128zM64 0v64h-64v320h64v64h256v-64h64v-320h-64v-64h-256z" />
<glyph unicode="P" horiz-adv-x="448" d="M256 192v192h-128v-192h128zM0 0v448h320v-64h64v-192h-64v-64h-192v-128h-128z" />
<glyph unicode="Q" horiz-adv-x="448" d="M192 64v64h64v256h-128v-320h64zM256 -64v64h-192v64h-64v320h64v64h256v-64h64v-320h-64v-64h64v-64h-128z" />
<glyph unicode="R" horiz-adv-x="448" d="M256 192v192h-128v-192h128zM0 0v448h320v-64h64v-192h-64v-64h64v-128h-128v128h-128v-128h-128z" />
<glyph unicode="S" horiz-adv-x="448" d="M64 0v64h-64v64h128v-64h128v128h-192v64h-64v128h64v64h256v-64h64v-64h-128v64h-128v-128h192v-64h64v-128h-64v-64h-256z" />
<glyph unicode="T" horiz-adv-x="448" d="M128 0v384h-128v64h384v-64h-128v-384h-128z" />
<glyph unicode="U" horiz-adv-x="448" d="M64 0v64h-64v384h128v-384h128v384h128v-384h-64v-64h-256z" />
<glyph unicode="V" horiz-adv-x="448" d="M128 0v64h-64v64h-64v320h128v-320h128v320h128v-320h-64v-64h-64v-64h-128z" />
<glyph unicode="W" horiz-adv-x="640" d="M128 0v64h-64v64h-64v320h128v-320h64v64h64v64h64v-64h64v-64h64v320h128v-320h-64v-64h-64v-64h-128v64h-64v-64h-128z" />
<glyph unicode="X" horiz-adv-x="512" d="M0 0v128h64v64h64v64h-64v64h-64v128h128v-64h64v-64h64v64h64v64h128v-128h-64v-64h-64v-64h64v-64h64v-128h-128v64h-64v64h-64v-64h-64v-64h-128z" />
<glyph unicode="Y" horiz-adv-x="448" d="M128 0v192h-64v64h-64v192h128v-192h128v192h128v-192h-64v-64h-64v-192h-128z" />
<glyph unicode="Z" d="M0 0v192h64v64h64v64h64v64h-192v64h320v-192h-64v-64h-64v-64h-64v-64h192v-64h-320z" />
<glyph unicode="[" horiz-adv-x="256" d="M0 -128v640h192v-64h-64v-512h64v-64h-192z" />
<glyph unicode="\" horiz-adv-x="256" d="M128 0v128h-64v128h-64v192h64v-128h64v-128h64v-192h-64z" />
<glyph unicode="]" horiz-adv-x="256" d="M0 -128v64h64v512h-64v64h192v-640h-192z" />
<glyph unicode="^" d="M0 320v64h64v64h64v64h64v-64h64v-64h64v-64h-128v64h-64v-64h-128z" />
<glyph unicode="_" horiz-adv-x="448" d="M0 0v64h384v-64h-384z" />
<glyph unicode="`" horiz-adv-x="256" d="M64 320v64h-64v64h128v-64h64v-64h-128z" />
<glyph unicode="a" d="M192 64v64h-64v-64h64zM64 0v64h-64v64h64v64h128v64h-128v64h192v-64h64v-256h-256z" />
<glyph unicode="b" d="M192 64v192h-64v-192h64zM0 0v448h128v-128h128v-64h64v-192h-64v-64h-256z" />
<glyph unicode="c" d="M64 0v64h-64v192h64v64h192v-64h64v-64h-128v64h-64v-192h64v64h128v-64h-64v-64h-192z" />
<glyph unicode="d" d="M192 64v192h-64v-192h64zM64 0v64h-64v192h64v64h128v128h128v-448h-256z" />
<glyph unicode="e" d="M192 192v64h-64v-64h64zM64 0v64h-64v192h64v64h192v-64h64v-128h-192v-64h128v-64h-192z" />
<glyph unicode="f" horiz-adv-x="320" d="M64 0v256h-64v64h64v128h64v64h128v-64h-64v-128h64v-64h-64v-256h-128z" />
<glyph unicode="g" d="M192 -256v128h-64v-128h64zM192 64v192h-64v-192h64zM64 -320v64h-64v128h64v64h128v64h-128v64h-64v192h64v64h192v-64h64v-320h-64v-64h64v-128h-64v-64h-192z" />
<glyph unicode="h" d="M0 0v448h128v-128h128v-64h64v-256h-128v256h-64v-256h-128z" />
<glyph unicode="i" horiz-adv-x="192" d="M0 0v320h128v-320h-128zM0 384v64h128v-64h-128z" />
<glyph unicode="j" horiz-adv-x="256" d="M0 -256v64h64v512h128v-512h-64v-64h-128zM64 384v64h128v-64h-128z" />
<glyph unicode="k" d="M0 0v448h128v-256h64v128h128v-128h-64v-64h64v-128h-128v128h-64v-128h-128z" />
<glyph unicode="l" horiz-adv-x="256" d="M0 0v448h128v-384h64v-64h-192z" />
<glyph unicode="m" horiz-adv-x="576" d="M0 0v320h448v-64h64v-256h-128v256h-64v-256h-128v256h-64v-256h-128z" />
<glyph unicode="n" d="M0 0v320h256v-64h64v-256h-128v256h-64v-256h-128z" />
<glyph unicode="o" d="M192 64v192h-64v-192h64zM64 0v64h-64v192h64v64h192v-64h64v-192h-64v-64h-192z" />
<glyph unicode="p" d="M192 64v192h-64v-192h64zM0 -192v512h256v-64h64v-192h-64v-64h-128v-192h-128z" />
<glyph unicode="q" d="M192 64v192h-64v-192h64zM192 -192v192h-128v64h-64v192h64v64h192v-64h64v-448h-128z" />
<glyph unicode="r" horiz-adv-x="320" d="M0 0v320h64v-64h64v64h128v-64h-64v-64h-64v-192h-128z" />
<glyph unicode="s" d="M0 0v64h128v64h-64v64h-64v64h64v64h256v-64h-128v-64h64v-64h64v-64h-64v-64h-256z" />
<glyph unicode="t" horiz-adv-x="320" d="M128 0v64h-64v192h-64v64h64v128h128v-128h64v-64h-64v-192h64v-64h-128z" />
<glyph unicode="u" d="M64 0v64h-64v256h128v-256h64v256h128v-320h-256z" />
<glyph unicode="v" d="M128 0v64h-64v64h-64v192h128v-192h64v192h128v-192h-64v-64h-64v-64h-64z" />
<glyph unicode="w" horiz-adv-x="512" d="M128 0v64h-64v64h-64v192h128v-192h64v64h64v-64h64v192h128v-192h-64v-64h-64v-64h-64v64h-64v-64h-64z" />
<glyph unicode="x" d="M0 0v128h64v64h-64v128h128v-64h64v64h128v-128h-64v-64h64v-128h-128v64h-64v-64h-128z" />
<glyph unicode="y" d="M64 -256v64h128v192h-128v64h-64v256h128v-256h64v256h128v-512h-64v-64h-192z" />
<glyph unicode="z" d="M0 0v128h64v64h128v64h-192v64h320v-128h-64v-64h-128v-64h192v-64h-320z" />
<glyph unicode="{" horiz-adv-x="320" d="M128 -128v64h-64v192h-64v128h64v192h64v64h128v-64h-64v-192h-64v-128h64v-192h64v-64h-128z" />
<glyph unicode="|" horiz-adv-x="128" d="M0 -64v576h64v-576h-64z" />
<glyph unicode="}" horiz-adv-x="320" d="M0 -128v64h64v192h64v128h-64v192h-64v64h128v-64h64v-192h64v-128h-64v-192h-64v-64h-128z" />
<glyph unicode="~" horiz-adv-x="512" d="M0 128v64h64v64h192v-64h64v64h128v-64h-64v-64h-192v64h-64v-64h-128z" />
<glyph unicode="&#xa1;" horiz-adv-x="192" d="M0 -192v320h128v-320h-128zM0 192v64h128v-64h-128z" />
<glyph unicode="&#xa2;" horiz-adv-x="448" d="M320 64v64h64v-64h-64zM192 64v320h-64v-320h64zM320 320v64h64v-64h-64zM192 -64v64h-128v64h-64v320h64v64h128v64h64v-64h64v-64h-64v-320h64v-64h-64v-64h-64z" />
<glyph unicode="&#xa3;" horiz-adv-x="448" d="M0 0v64h64v64h64v64h-64v64h64v128h64v-128h64v-64h-64v-128h192v-64h-384zM320 320v64h64v-64h-64zM192 384v64h128v-64h-128z" />
<glyph unicode="&#xa4;" horiz-adv-x="448" d="M0 0v64h64v-64h-64zM320 0v64h64v-64h-64zM256 128v128h-128v-128h128zM64 64v256h256v-256h-256zM0 320v64h64v-64h-64zM320 320v64h64v-64h-64z" />
<glyph unicode="&#xa5;" horiz-adv-x="448" d="M128 0v64h-64v64h64v64h-64v64h-64v192h128v-192h128v192h128v-192h-64v-64h-64v-64h64v-64h-64v-64h-128z" />
<glyph unicode="&#xa6;" horiz-adv-x="128" d="M0 -64v192h64v-192h-64zM0 192v192h64v-192h-64z" />
<glyph unicode="&#xa7;" d="M256 64v64h-64v64h-128v-64h64v-64h128zM64 -192v64h-64v64h128v-64h64v128h-128v64h-64v320h64v64h192v-64h64v-64h-128v64h-64v-128h128v-64h64v-320h-64v-64h-192z" />
<glyph unicode="&#xa8;" horiz-adv-x="256" d="M0 384v64h64v-64h-64zM128 384v64h64v-64h-64z" />
<glyph unicode="&#xa9;" horiz-adv-x="512" d="M128 0v64h192v-64h-192zM64 64v64h64v-64h-64zM320 64v64h64v-64h-64zM0 128v192h64v-192h-64zM128 128v192h192v-64h-128v-64h128v-64h-192zM384 128v192h64v-192h-64zM64 320v64h64v-64h-64zM320 320v64h64v-64h-64zM128 384v64h192v-64h-192z" />
<glyph unicode="&#xaa;" horiz-adv-x="256" d="M0 256v128h64v-64h64v64h-64v64h128v-192h-192z" />
<glyph unicode="&#xab;" horiz-adv-x="448" d="M128 0v64h64v-64h-64zM320 0v64h64v-64h-64zM64 64v64h-64v64h64v64h64v-192h-64zM256 64v64h-64v64h64v64h64v-192h-64zM128 256v64h64v-64h-64zM320 256v64h64v-64h-64z" />
<glyph unicode="&#xac;" horiz-adv-x="448" d="M320 64v64h-320v64h384v-128h-64z" />
<glyph unicode="&#xae;" horiz-adv-x="512" d="M128 0v64h192v-64h-192zM64 64v64h64v-64h-64zM320 64v64h64v-64h-64zM0 128v192h64v-192h-64zM128 128v192h128v-64h64v-128h-64v64h-64v-64h-64zM384 128v192h64v-192h-64zM64 320v64h64v-64h-64zM320 320v64h64v-64h-64zM128 384v64h192v-64h-192z" />
<glyph unicode="&#xaf;" horiz-adv-x="320" d="M0 384v64h256v-64h-256z" />
<glyph unicode="&#xb0;" horiz-adv-x="256" d="M64 256v64h64v-64h-64zM0 320v64h64v-64h-64zM128 320v64h64v-64h-64zM64 384v64h64v-64h-64z" />
<glyph unicode="&#xb1;" horiz-adv-x="256" d="M0 0v64h192v-64h-192zM64 128v64h-64v64h64v64h64v-64h64v-64h-64v-64h-64z" />
<glyph unicode="&#xb2;" horiz-adv-x="256" d="M0 256v128h128v-64h64v-64h-192zM128 384v64h64v-64h-64zM0 448v64h128v-64h-128z" />
<glyph unicode="&#xb3;" horiz-adv-x="256" d="M0 256v64h128v-64h-128zM128 320v64h-64v64h-64v64h128v-64h64v-128h-64z" />
<glyph unicode="&#xb4;" horiz-adv-x="192" d="M0 384v64h64v-64h-64zM64 448v64h64v-64h-64z" />
<glyph unicode="&#xb5;" horiz-adv-x="448" d="M0 -192v512h128v-128h64v-64h64v192h128v-384h-64v128h-64v-64h-64v64h-64v-256h-128z" />
<glyph unicode="&#xb6;" horiz-adv-x="448" d="M128 -192v320h-64v64h-64v192h64v64h320v-64h-64v-576h-64v576h-64v-576h-64z" />
<glyph unicode="&#xb7;" horiz-adv-x="192" d="M0 128v128h128v-128h-128z" />
<glyph unicode="&#xb8;" horiz-adv-x="256" d="M64 -128v64h64v64h64v-128h-128z" />
<glyph unicode="&#xb9;" horiz-adv-x="256" d="M0 256v64h64v64h-64v64h64v64h64v-192h64v-64h-192z" />
<glyph unicode="&#xba;" horiz-adv-x="256" d="M128 320v64h-64v-64h64zM0 256v192h192v-192h-192z" />
<glyph unicode="&#xbb;" horiz-adv-x="448" d="M0 0v64h64v-64h-64zM192 0v64h64v-64h-64zM64 64v192h64v-64h64v-64h-64v-64h-64zM256 64v192h64v-64h64v-64h-64v-64h-64zM0 256v64h64v-64h-64zM192 256v64h64v-64h-64z" />
<glyph unicode="&#xbc;" horiz-adv-x="576" d="M0 0v64h64v-64h-64zM64 64v64h64v-64h-64zM128 128v64h64v-64h-64zM192 192v64h64v-64h-64zM448 0v64h-128v192h64v-128h64v128h64v-256h-64zM256 256v64h64v-64h-64zM320 320v64h64v-64h-64zM384 384v64h64v-64h-64zM0 256v64h64v64h-64v64h64v64h64v-192h64v-64h-192z M448 448v64h64v-64h-64z" />
<glyph unicode="&#xbd;" horiz-adv-x="576" d="M0 0v64h64v-64h-64zM64 64v64h64v-64h-64zM320 0v128h128v-64h64v-64h-192zM128 128v64h64v-64h-64zM448 128v64h64v-64h-64zM192 192v64h64v-64h-64zM320 192v64h128v-64h-128zM256 256v64h64v-64h-64zM320 320v64h64v-64h-64zM384 384v64h64v-64h-64zM0 256v64h64v64 h-64v64h64v64h64v-192h64v-64h-192zM448 448v64h64v-64h-64z" />
<glyph unicode="&#xbe;" horiz-adv-x="576" d="M0 0v64h64v-64h-64zM64 64v64h64v-64h-64zM128 128v64h64v-64h-64zM192 192v64h64v-64h-64zM448 0v64h-128v192h64v-128h64v128h64v-256h-64zM0 256v64h128v-64h-128zM256 256v64h64v-64h-64zM320 320v64h64v-64h-64zM384 384v64h64v-64h-64zM128 320v64h-64v64h-64v64 h128v-64h64v-128h-64zM448 448v64h64v-64h-64z" />
<glyph unicode="&#xbf;" d="M64 -192v64h-64v192h64v64h128v-64h-64v-192h64v128h128v-128h-64v-64h-192zM64 192v64h128v-64h-128z" />
<glyph unicode="&#xc0;" horiz-adv-x="448" d="M256 192v192h-128v-192h128zM0 0v384h64v64h256v-64h64v-384h-128v128h-128v-128h-128zM128 512v64h64v-64h-64zM64 576v64h64v-64h-64z" />
<glyph unicode="&#xc1;" horiz-adv-x="448" d="M256 192v192h-128v-192h128zM0 0v384h64v64h256v-64h64v-384h-128v128h-128v-128h-128zM192 512v64h64v-64h-64zM256 576v64h64v-64h-64z" />
<glyph unicode="&#xc2;" horiz-adv-x="448" d="M256 192v192h-128v-192h128zM0 0v384h64v64h256v-64h64v-384h-128v128h-128v-128h-128zM64 512v64h64v-64h-64zM256 512v64h64v-64h-64zM128 576v64h128v-64h-128z" />
<glyph unicode="&#xc3;" horiz-adv-x="448" d="M256 192v192h-128v-192h128zM0 0v384h64v64h256v-64h64v-384h-128v128h-128v-128h-128zM64 512v64h64v-64h-64zM192 512v64h64v-64h-64zM128 576v64h64v-64h-64zM256 576v64h64v-64h-64z" />
<glyph unicode="&#xc4;" horiz-adv-x="448" d="M256 192v192h-128v-192h128zM0 0v384h64v64h256v-64h64v-384h-128v128h-128v-128h-128zM64 512v64h64v-64h-64zM256 512v64h64v-64h-64z" />
<glyph unicode="&#xc5;" horiz-adv-x="448" d="M256 192v192h-128v-192h128zM0 0v384h64v64h256v-64h64v-384h-128v128h-128v-128h-128zM128 512v128h128v-128h-128z" />
<glyph unicode="&#xc6;" horiz-adv-x="576" d="M192 256v128h-64v-128h64zM0 0v384h64v64h448v-64h-192v-128h128v-64h-128v-128h192v-64h-320v192h-64v-192h-128z" />
<glyph unicode="&#xc7;" horiz-adv-x="448" d="M128 -128v64h64v64h-128v64h-64v320h64v64h256v-64h64v-64h-128v64h-128v-320h128v64h128v-64h-64v-64h-64v-128h-128z" />
<glyph unicode="&#xc8;" d="M0 0v448h320v-64h-192v-128h128v-64h-128v-128h192v-64h-320zM128 512v64h64v-64h-64zM64 576v64h64v-64h-64z" />
<glyph unicode="&#xc9;" d="M0 0v448h320v-64h-192v-128h128v-64h-128v-128h192v-64h-320zM192 512v64h64v-64h-64zM256 576v64h64v-64h-64z" />
<glyph unicode="&#xca;" d="M0 0v448h320v-64h-192v-128h128v-64h-128v-128h192v-64h-320zM64 512v64h64v-64h-64zM192 512v64h64v-64h-64zM128 576v64h64v-64h-64z" />
<glyph unicode="&#xcb;" d="M0 0v448h320v-64h-192v-128h128v-64h-128v-128h192v-64h-320zM64 512v64h64v-64h-64zM192 512v64h64v-64h-64z" />
<glyph unicode="&#xcc;" horiz-adv-x="192" d="M0 0v448h128v-448h-128zM64 512v64h64v-64h-64zM0 576v64h64v-64h-64z" />
<glyph unicode="&#xcd;" horiz-adv-x="192" d="M0 0v448h128v-448h-128zM0 512v64h64v-64h-64zM64 576v64h64v-64h-64z" />
<glyph unicode="&#xce;" horiz-adv-x="256" d="M0 0v448h128v-448h-128zM-64 512v64h64v-64h-64zM128 512v64h64v-64h-64zM0 576v64h128v-64h-128z" />
<glyph unicode="&#xcf;" horiz-adv-x="256" d="M0 0v448h128v-448h-128zM-64 512v64h64v-64h-64zM128 512v64h64v-64h-64z" />
<glyph unicode="&#xd0;" horiz-adv-x="448" d="M256 64v320h-128v-128h64v-64h-64v-128h128zM0 0v192h-64v64h64v192h320v-64h64v-320h-64v-64h-320z" />
<glyph unicode="&#xd1;" horiz-adv-x="448" d="M0 0v448h128v-64h64v-64h64v128h128v-448h-128v192h-64v64h-64v-256h-128zM64 512v64h64v-64h-64zM192 512v64h64v-64h-64zM128 576v64h64v-64h-64zM256 576v64h64v-64h-64z" />
<glyph unicode="&#xd2;" horiz-adv-x="448" d="M256 64v320h-128v-320h128zM64 0v64h-64v320h64v64h256v-64h64v-320h-64v-64h-256zM128 512v64h64v-64h-64zM64 576v64h64v-64h-64z" />
<glyph unicode="&#xd3;" horiz-adv-x="448" d="M256 64v320h-128v-320h128zM64 0v64h-64v320h64v64h256v-64h64v-320h-64v-64h-256zM192 512v64h64v-64h-64zM256 576v64h64v-64h-64z" />
<glyph unicode="&#xd4;" horiz-adv-x="448" d="M256 64v320h-128v-320h128zM64 0v64h-64v320h64v64h256v-64h64v-320h-64v-64h-256zM64 512v64h64v-64h-64zM256 512v64h64v-64h-64zM128 576v64h128v-64h-128z" />
<glyph unicode="&#xd5;" horiz-adv-x="448" d="M256 64v320h-128v-320h128zM64 0v64h-64v320h64v64h256v-64h64v-320h-64v-64h-256zM64 512v64h64v-64h-64zM192 512v64h64v-64h-64zM128 576v64h64v-64h-64zM256 576v64h64v-64h-64z" />
<glyph unicode="&#xd6;" horiz-adv-x="448" d="M256 64v320h-128v-320h128zM64 0v64h-64v320h64v64h256v-64h64v-320h-64v-64h-256zM64 512v64h64v-64h-64zM256 512v64h64v-64h-64z" />
<glyph unicode="&#xd7;" horiz-adv-x="256" d="M0 64v64h64v-64h-64zM128 64v64h64v-64h-64zM64 128v64h64v-64h-64zM0 192v64h64v-64h-64zM128 192v64h64v-64h-64z" />
<glyph unicode="&#xd8;" horiz-adv-x="512" d="M-64 0v64h64v-64h-64zM256 64v192h-64v64h64v64h-128v-128h64v-64h-64v-128h128zM64 0v64h-64v320h64v64h256v-64h64v-320h-64v-64h-256zM384 384v64h64v-64h-64z" />
<glyph unicode="&#xd9;" horiz-adv-x="448" d="M64 0v64h-64v384h128v-384h128v384h128v-384h-64v-64h-256zM128 512v64h64v-64h-64zM64 576v64h64v-64h-64z" />
<glyph unicode="&#xda;" horiz-adv-x="448" d="M64 0v64h-64v384h128v-384h128v384h128v-384h-64v-64h-256zM192 512v64h64v-64h-64zM256 576v64h64v-64h-64z" />
<glyph unicode="&#xdb;" horiz-adv-x="448" d="M64 0v64h-64v384h128v-384h128v384h128v-384h-64v-64h-256zM64 512v64h64v-64h-64zM256 512v64h64v-64h-64zM128 576v64h128v-64h-128z" />
<glyph unicode="&#xdc;" horiz-adv-x="448" d="M64 0v64h-64v384h128v-384h128v384h128v-384h-64v-64h-256zM64 512v64h64v-64h-64zM256 512v64h64v-64h-64z" />
<glyph unicode="&#xdd;" horiz-adv-x="448" d="M128 0v192h-64v64h-64v192h128v-192h128v192h128v-192h-64v-64h-64v-192h-128zM192 512v64h64v-64h-64zM256 576v64h64v-64h-64z" />
<glyph unicode="&#xde;" horiz-adv-x="448" d="M256 128v192h-128v-192h128zM0 0v448h128v-64h192v-64h64v-192h-64v-64h-192v-64h-128z" />
<glyph unicode="&#xdf;" horiz-adv-x="448" d="M0 0v384h64v64h192v-64h64v-64h-64v-64h64v-64h64v-128h-64v-64h-128v64h64v128h-64v192h-64v-384h-128z" />
<glyph unicode="&#xe0;" d="M192 64v64h-64v-64h64zM64 0v64h-64v64h64v64h128v64h-128v64h192v-64h64v-256h-256zM128 384v64h64v-64h-64zM64 448v64h64v-64h-64z" />
<glyph unicode="&#xe1;" d="M192 64v64h-64v-64h64zM64 0v64h-64v64h64v64h128v64h-128v64h192v-64h64v-256h-256zM128 384v64h64v-64h-64zM192 448v64h64v-64h-64z" />
<glyph unicode="&#xe2;" d="M192 64v64h-64v-64h64zM64 0v64h-64v64h64v64h128v64h-128v64h192v-64h64v-256h-256zM64 384v64h64v-64h-64zM192 384v64h64v-64h-64zM128 448v64h64v-64h-64z" />
<glyph unicode="&#xe3;" d="M192 64v64h-64v-64h64zM64 0v64h-64v64h64v64h128v64h-128v64h192v-64h64v-256h-256zM64 384v64h64v-64h-64zM192 384v64h64v-64h-64zM128 448v64h64v-64h-64zM256 448v64h64v-64h-64z" />
<glyph unicode="&#xe4;" d="M192 64v64h-64v-64h64zM64 0v64h-64v64h64v64h128v64h-128v64h192v-64h64v-256h-256zM64 384v64h64v-64h-64zM192 384v64h64v-64h-64z" />
<glyph unicode="&#xe5;" d="M192 64v64h-64v-64h64zM64 0v64h-64v64h64v64h128v64h-128v64h192v-64h64v-256h-256zM128 384v128h128v-128h-128z" />
<glyph unicode="&#xe6;" horiz-adv-x="576" d="M64 0v64h-64v64h64v64h128v64h-128v64h192v-64h64v-64h64v64h-64v64h128v-64h64v-64h-64v-64h-128v-64h128v-64h-192v64h-64v64h-64v-64h64v-64h-128z" />
<glyph unicode="&#xe7;" d="M64 -128v64h64v64h-64v64h-64v192h64v64h192v-64h64v-64h-128v64h-64v-192h64v64h128v-64h-64v-64h-64v-128h-128z" />
<glyph unicode="&#xe8;" d="M192 192v64h-64v-64h64zM64 0v64h-64v192h64v64h192v-64h64v-128h-192v-64h128v-64h-192zM128 384v64h64v-64h-64zM64 448v64h64v-64h-64z" />
<glyph unicode="&#xe9;" d="M192 192v64h-64v-64h64zM64 0v64h-64v192h64v64h192v-64h64v-128h-192v-64h128v-64h-192zM128 384v64h64v-64h-64zM192 448v64h64v-64h-64z" />
<glyph unicode="&#xea;" d="M192 192v64h-64v-64h64zM64 0v64h-64v192h64v64h192v-64h64v-128h-192v-64h128v-64h-192zM64 384v64h64v-64h-64zM192 384v64h64v-64h-64zM128 448v64h64v-64h-64z" />
<glyph unicode="&#xeb;" d="M192 192v64h-64v-64h64zM64 0v64h-64v192h64v64h192v-64h64v-128h-192v-64h128v-64h-192zM64 384v64h64v-64h-64zM192 384v64h64v-64h-64z" />
<glyph unicode="&#xec;" horiz-adv-x="192" d="M0 0v320h128v-320h-128zM64 384v64h64v-64h-64zM0 448v64h64v-64h-64z" />
<glyph unicode="&#xed;" horiz-adv-x="192" d="M0 0v320h128v-320h-128zM0 384v64h64v-64h-64zM64 448v64h64v-64h-64z" />
<glyph unicode="&#xee;" horiz-adv-x="256" d="M0 0v320h128v-320h-128zM-64 384v64h64v-64h-64zM128 384v64h64v-64h-64zM0 448v64h128v-64h-128z" />
<glyph unicode="&#xef;" horiz-adv-x="256" d="M0 0v320h128v-320h-128zM-64 384v64h64v-64h-64zM128 384v64h64v-64h-64z" />
<glyph unicode="&#xf0;" d="M192 64v192h-64v-192h64zM64 0v64h-64v192h64v64h128v128h-64v-64h-64v64h-64v64h64v64h64v-64h128v-128h64v-320h-64v-64h-192z" />
<glyph unicode="&#xf1;" d="M0 0v320h256v-64h64v-256h-128v256h-64v-256h-128zM0 384v64h64v-64h-64zM128 384v64h64v-64h-64zM64 448v64h64v-64h-64zM192 448v64h64v-64h-64z" />
<glyph unicode="&#xf2;" d="M192 64v192h-64v-192h64zM64 0v64h-64v192h64v64h192v-64h64v-192h-64v-64h-192zM128 384v64h64v-64h-64zM64 448v64h64v-64h-64z" />
<glyph unicode="&#xf3;" d="M192 64v192h-64v-192h64zM64 0v64h-64v192h64v64h192v-64h64v-192h-64v-64h-192zM128 384v64h64v-64h-64zM192 448v64h64v-64h-64z" />
<glyph unicode="&#xf4;" d="M192 64v192h-64v-192h64zM64 0v64h-64v192h64v64h192v-64h64v-192h-64v-64h-192zM64 384v64h64v-64h-64zM192 384v64h64v-64h-64zM128 448v64h64v-64h-64z" />
<glyph unicode="&#xf5;" d="M192 64v192h-64v-192h64zM64 0v64h-64v192h64v64h192v-64h64v-192h-64v-64h-192zM64 384v64h64v-64h-64zM192 384v64h64v-64h-64zM128 448v64h64v-64h-64zM256 448v64h64v-64h-64z" />
<glyph unicode="&#xf6;" d="M192 64v192h-64v-192h64zM64 0v64h-64v192h64v64h192v-64h64v-192h-64v-64h-192zM64 384v64h64v-64h-64zM192 384v64h64v-64h-64z" />
<glyph unicode="&#xf7;" horiz-adv-x="256" d="M64 0v64h64v-64h-64zM0 128v64h192v-64h-192zM64 256v64h64v-64h-64z" />
<glyph unicode="&#xf8;" d="M0 -64v64h64v-64h-64zM192 64v64h-64v-64h64zM192 192v64h-64v-64h64zM64 0v64h-64v192h64v64h192v-64h64v-192h-64v-64h-192zM256 320v64h64v-64h-64z" />
<glyph unicode="&#xf9;" d="M64 0v64h-64v256h128v-256h64v256h128v-320h-256zM128 384v64h64v-64h-64zM64 448v64h64v-64h-64z" />
<glyph unicode="&#xfa;" d="M64 0v64h-64v256h128v-256h64v256h128v-320h-256zM128 384v64h64v-64h-64zM192 448v64h64v-64h-64z" />
<glyph unicode="&#xfb;" d="M64 0v64h-64v256h128v-256h64v256h128v-320h-256zM64 384v64h64v-64h-64zM192 384v64h64v-64h-64zM128 448v64h64v-64h-64z" />
<glyph unicode="&#xfc;" d="M64 0v64h-64v256h128v-256h64v256h128v-320h-256zM64 384v64h64v-64h-64zM192 384v64h64v-64h-64z" />
<glyph unicode="&#xfd;" d="M64 -256v64h128v192h-128v64h-64v256h128v-256h64v256h128v-512h-64v-64h-192zM128 384v64h64v-64h-64zM192 448v64h64v-64h-64z" />
<glyph unicode="&#xfe;" d="M192 0v128h-64v-128h64zM0 -192v512h128v-128h128v-64h64v-128h-64v-64h-128v-128h-128z" />
<glyph unicode="&#xff;" d="M64 -256v64h128v192h-128v64h-64v256h128v-256h64v256h128v-512h-64v-64h-192zM64 384v64h64v-64h-64zM192 384v64h64v-64h-64z" />
<glyph unicode="&#x178;" horiz-adv-x="448" d="M128 0v192h-64v64h-64v192h128v-192h128v192h128v-192h-64v-64h-64v-192h-128zM64 512v64h64v-64h-64zM256 512v64h64v-64h-64z" />
<glyph unicode="&#x401;" d="M0 0v448h320v-64h-192v-128h128v-64h-128v-128h192v-64h-320zM64 512v64h64v-64h-64zM192 512v64h64v-64h-64z" />
<glyph unicode="&#x410;" horiz-adv-x="512" d="M256 192v128h-64v-128h64zM0 0v128h64v192h64v128h192v-128h64v-192h64v-128h-128v128h-192v-128h-128z" />
<glyph unicode="&#x411;" horiz-adv-x="448" d="M256 64v192h-128v-192h128zM0 0v448h320v-64h-192v-64h192v-64h64v-192h-64v-64h-320z" />
<glyph unicode="&#x412;" horiz-adv-x="448" d="M256 64v192h-128v-192h128zM256 320v64h-128v-64h128zM0 0v448h320v-64h64v-64h-64v-64h64v-192h-64v-64h-320z" />
<glyph unicode="&#x413;" horiz-adv-x="320" d="M0 0v448h256v-64h-128v-384h-128z" />
<glyph unicode="&#x414;" horiz-adv-x="576" d="M320 128v256h-128v-256h128zM0 -64v192h64v256h64v64h320v-320h64v-192h-128v128h-256v-128h-128z" />
<glyph unicode="&#x415;" d="M0 0v448h320v-64h-192v-128h128v-64h-128v-128h192v-64h-320z" />
<glyph unicode="&#x416;" horiz-adv-x="704" d="M0 0v64h64v128h64v64h-64v128h-64v64h128v-64h64v-128h64v192h128v-192h64v128h64v64h128v-64h-64v-128h-64v-64h64v-128h64v-64h-128v64h-64v128h-64v-192h-128v192h-64v-128h-64v-64h-128z" />
<glyph unicode="&#x417;" horiz-adv-x="448" d="M64 0v64h-64v64h128v-64h128v192h-64v64h64v64h-192v64h256v-64h64v-64h-64v-64h64v-192h-64v-64h-256z" />
<glyph unicode="&#x418;" horiz-adv-x="448" d="M0 0v448h128v-256h64v128h64v128h128v-448h-128v128h-64v-128h-192z" />
<glyph unicode="&#x419;" horiz-adv-x="448" d="M0 0v448h128v-256h64v128h64v128h128v-448h-128v128h-64v-128h-192zM128 512v64h128v-64h-128zM64 576v64h64v-64h-64zM256 576v64h64v-64h-64z" />
<glyph unicode="&#x41a;" horiz-adv-x="448" d="M0 0v448h128v-192h64v128h64v64h128v-64h-64v-128h-64v-64h64v-128h64v-64h-128v64h-64v128h-64v-192h-128z" />
<glyph unicode="&#x41b;" horiz-adv-x="512" d="M0 0v64h64v320h64v64h320v-448h-128v384h-128v-320h-64v-64h-128z" />
<glyph unicode="&#x41c;" horiz-adv-x="576" d="M0 0v448h128v-64h64v-64h128v64h64v64h128v-448h-128v256h-64v-64h-128v64h-64v-256h-128z" />
<glyph unicode="&#x41d;" horiz-adv-x="448" d="M0 0v448h128v-192h128v192h128v-448h-128v192h-128v-192h-128z" />
<glyph unicode="&#x41e;" horiz-adv-x="448" d="M256 64v320h-128v-320h128zM64 0v64h-64v320h64v64h256v-64h64v-320h-64v-64h-256z" />
<glyph unicode="&#x41f;" horiz-adv-x="448" d="M0 0v448h384v-448h-128v384h-128v-384h-128z" />
<glyph unicode="&#x420;" horiz-adv-x="448" d="M256 192v192h-128v-192h128zM0 0v448h320v-64h64v-192h-64v-64h-192v-128h-128z" />
<glyph unicode="&#x421;" horiz-adv-x="448" d="M64 0v64h-64v320h64v64h256v-64h64v-64h-128v64h-128v-320h128v64h128v-64h-64v-64h-256z" />
<glyph unicode="&#x422;" horiz-adv-x="448" d="M128 0v384h-128v64h384v-64h-128v-384h-128z" />
<glyph unicode="&#x423;" horiz-adv-x="448" d="M64 0v64h-64v64h128v-64h128v128h-192v64h-64v192h128v-192h128v192h128v-384h-64v-64h-256z" />
<glyph unicode="&#x424;" horiz-adv-x="576" d="M192 192v192h-64v-192h64zM384 192v192h-64v-192h64zM192 0v128h-128v64h-64v192h64v64h384v-64h64v-192h-64v-64h-128v-128h-128z" />
<glyph unicode="&#x425;" horiz-adv-x="448" d="M0 0v128h64v64h64v64h-64v64h-64v128h128v-128h128v128h128v-128h-64v-64h-64v-64h64v-64h64v-128h-128v128h-128v-128h-128z" />
<glyph unicode="&#x426;" horiz-adv-x="512" d="M384 -64v64h-384v448h128v-384h128v384h128v-384h64v-128h-64z" />
<glyph unicode="&#x427;" horiz-adv-x="448" d="M256 0v128h-192v64h-64v256h128v-256h128v256h128v-448h-128z" />
<glyph unicode="&#x428;" horiz-adv-x="704" d="M0 0v448h128v-384h128v384h128v-384h128v384h128v-448h-640z" />
<glyph unicode="&#x429;" horiz-adv-x="768" d="M640 -64v64h-640v448h128v-384h128v384h128v-384h128v384h128v-384h64v-128h-64z" />
<glyph unicode="&#x42a;" horiz-adv-x="512" d="M320 64v192h-128v-192h128zM64 0v384h-64v64h192v-128h192v-64h64v-192h-64v-64h-320z" />
<glyph unicode="&#x42b;" horiz-adv-x="640" d="M256 64v192h-128v-192h128zM0 0v448h128v-128h192v-64h64v-192h-64v-64h-320zM448 0v448h128v-448h-128z" />
<glyph unicode="&#x42c;" horiz-adv-x="448" d="M256 64v192h-128v-192h128zM0 0v448h128v-128h192v-64h64v-192h-64v-64h-320z" />
<glyph unicode="&#x42d;" horiz-adv-x="448" d="M64 0v64h-64v64h128v-64h128v128h-128v64h128v128h-128v-64h-128v64h64v64h256v-64h64v-320h-64v-64h-256z" />
<glyph unicode="&#x42e;" horiz-adv-x="640" d="M448 64v320h-128v-320h128zM0 0v448h128v-192h64v128h64v64h256v-64h64v-320h-64v-64h-256v64h-64v128h-64v-192h-128z" />
<glyph unicode="&#x42f;" horiz-adv-x="512" d="M320 256v128h-128v-128h128zM0 0v64h64v128h64v64h-64v128h64v64h320v-448h-128v192h-128v-128h-64v-64h-128z" />
<glyph unicode="&#x430;" d="M192 64v64h-64v-64h64zM64 0v64h-64v64h64v64h128v64h-128v64h192v-64h64v-256h-256z" />
<glyph unicode="&#x431;" d="M192 64v128h-64v-128h64zM64 0v64h-64v256h64v64h128v64h64v-128h-128v-64h128v-64h64v-128h-64v-64h-192z" />
<glyph unicode="&#x432;" d="M192 64v64h-64v-64h64zM192 192v64h-64v-64h64zM0 0v320h256v-64h64v-64h-64v-64h64v-64h-64v-64h-256z" />
<glyph unicode="&#x433;" horiz-adv-x="320" d="M0 0v320h256v-64h-128v-256h-128z" />
<glyph unicode="&#x434;" d="M192 64v192h-64v-192h64zM64 -256v64h-64v128h128v-128h64v128h-64v64h-64v64h-64v192h64v64h256v-512h-64v-64h-192z" />
<glyph unicode="&#x435;" d="M192 192v64h-64v-64h64zM64 0v64h-64v192h64v64h192v-64h64v-128h-192v-64h128v-64h-192z" />
<glyph unicode="&#x436;" horiz-adv-x="512" d="M0 0v64h64v192h-64v64h128v-128h64v128h64v-128h64v128h128v-64h-64v-192h64v-64h-128v128h-64v-128h-64v128h-64v-128h-128z" />
<glyph unicode="&#x437;" d="M0 64v64h64v-64h-64zM0 192v64h64v-64h-64zM64 0v64h128v64h-64v64h64v64h-128v64h192v-64h64v-64h-64v-64h64v-64h-64v-64h-192z" />
<glyph unicode="&#x438;" d="M0 0v320h128v-256h64v-64h-192zM256 0v64h-64v256h128v-320h-64z" />
<glyph unicode="&#x439;" d="M0 0v320h128v-256h64v-64h-192zM256 0v64h-64v256h128v-320h-64zM128 384v64h64v-64h-64z" />
<glyph unicode="&#x43a;" d="M0 0v320h128v-128h64v128h128v-128h-64v-64h64v-128h-128v128h-64v-128h-128z" />
<glyph unicode="&#x43b;" horiz-adv-x="448" d="M0 0v64h64v192h64v64h256v-320h-128v256h-64v-192h-64v-64h-128z" />
<glyph unicode="&#x43c;" horiz-adv-x="512" d="M0 0v320h128v-64h64v-64h64v64h64v64h128v-320h-128v128h-64v-64h-64v64h-64v-128h-128z" />
<glyph unicode="&#x43d;" d="M0 0v320h128v-128h64v128h128v-320h-128v128h-64v-128h-128z" />
<glyph unicode="&#x43e;" d="M192 64v192h-64v-192h64zM64 0v64h-64v192h64v64h192v-64h64v-192h-64v-64h-192z" />
<glyph unicode="&#x43f;" d="M0 0v320h320v-320h-128v256h-64v-256h-128z" />
<glyph unicode="&#x440;" d="M192 64v192h-64v-192h64zM0 -128v448h256v-64h64v-192h-64v-64h-128v-128h-128z" />
<glyph unicode="&#x441;" d="M64 0v64h-64v192h64v64h192v-64h64v-64h-128v64h-64v-192h64v64h128v-64h-64v-64h-192z" />
<glyph unicode="&#x442;" horiz-adv-x="448" d="M128 0v256h-128v64h384v-64h-128v-256h-128z" />
<glyph unicode="&#x443;" d="M64 -192v64h128v128h-128v64h-64v256h128v-256h64v256h128v-448h-64v-64h-192z" />
<glyph unicode="&#x444;" horiz-adv-x="576" d="M192 64v192h-64v-192h64zM384 64v192h-64v-192h64zM192 -192v192h-128v64h-64v192h64v64h128v64h128v-64h128v-64h64v-192h-64v-64h-128v-192h-128z" />
<glyph unicode="&#x445;" horiz-adv-x="448" d="M0 0v64h64v64h64v64h-64v64h-64v64h128v-64h128v64h128v-64h-64v-64h-64v-64h64v-64h64v-64h-128v64h-128v-64h-128z" />
<glyph unicode="&#x446;" horiz-adv-x="448" d="M320 -64v64h-320v320h128v-256h64v256h128v-256h64v-128h-64z" />
<glyph unicode="&#x447;" d="M192 0v64h-128v64h-64v192h128v-192h64v192h128v-320h-128z" />
<glyph unicode="&#x448;" horiz-adv-x="512" d="M0 0v320h128v-256h64v256h64v-256h64v256h128v-320h-448z" />
<glyph unicode="&#x449;" horiz-adv-x="576" d="M448 -64v64h-448v320h128v-256h64v256h64v-256h64v256h128v-256h64v-128h-64z" />
<glyph unicode="&#x44a;" horiz-adv-x="448" d="M256 64v128h-64v-128h64zM64 0v256h-64v64h192v-64h128v-64h64v-128h-64v-64h-256z" />
<glyph unicode="&#x44b;" horiz-adv-x="576" d="M192 64v128h-64v-128h64zM0 0v320h128v-64h128v-64h64v-128h-64v-64h-256zM384 0v320h128v-320h-128z" />
<glyph unicode="&#x44c;" d="M192 64v128h-64v-128h64zM0 0v320h128v-64h128v-64h64v-128h-64v-64h-256z" />
<glyph unicode="&#x44d;" d="M0 64v64h64v-64h-64zM0 192v64h64v-64h-64zM64 0v64h128v64h-64v64h64v64h-128v64h192v-64h64v-192h-64v-64h-192z" />
<glyph unicode="&#x44e;" horiz-adv-x="576" d="M384 64v192h-64v-192h64zM0 0v320h128v-128h64v64h64v64h192v-64h64v-192h-64v-64h-192v64h-64v64h-64v-128h-128z" />
<glyph unicode="&#x44f;" d="M192 192v64h-64v-64h64zM0 0v128h64v64h-64v64h64v64h256v-320h-128v128h-64v-128h-128z" />
<glyph unicode="&#x451;" d="M192 192v64h-64v-64h64zM64 0v64h-64v192h64v64h192v-64h64v-128h-192v-64h128v-64h-192zM64 384v64h64v-64h-64zM192 384v64h64v-64h-64z" />
<glyph unicode="&#x2014;" horiz-adv-x="576" d="M0 192v64h512v-64h-512z" />
<glyph unicode="&#x2018;" horiz-adv-x="192" d="M0 320v128h64v-64h64v-64h-128zM64 448v64h64v-64h-64z" />
<glyph unicode="&#x2019;" horiz-adv-x="192" d="M0 320v64h64v-64h-64zM64 384v64h-64v64h128v-128h-64z" />
<glyph unicode="&#x201a;" horiz-adv-x="128" d="M0 -64v128h64v-128h-64z" />
<glyph unicode="&#x201b;" horiz-adv-x="128" d="M0 384v128h64v-128h-64z" />
<glyph unicode="&#x201c;" d="M0 320v128h64v-64h64v-64h-128zM192 320v128h64v-64h64v-64h-128zM64 448v64h64v-64h-64zM256 448v64h64v-64h-64z" />
<glyph unicode="&#x201d;" d="M0 320v64h64v-64h-64zM192 320v64h64v-64h-64zM64 384v64h-64v64h128v-128h-64zM256 384v64h-64v64h128v-128h-64z" />
<glyph unicode="&#x201e;" horiz-adv-x="256" d="M0 -64v128h64v-128h-64zM128 -64v128h64v-128h-64z" />
<glyph unicode="&#x2020;" d="M128 -128v384h-128v64h128v128h64v-128h128v-64h-128v-384h-64z" />
<glyph unicode="&#x2022;" horiz-adv-x="320" d="M64 64v64h-64v128h64v64h128v-64h64v-128h-64v-64h-128z" />
<glyph unicode="&#x2026;" d="M0 0v64h64v-64h-64zM128 0v64h64v-64h-64zM256 0v64h64v-64h-64z" />
<glyph unicode="&#x2039;" horiz-adv-x="256" d="M128 0v64h64v-64h-64zM64 64v64h-64v64h64v64h64v-192h-64zM128 256v64h64v-64h-64z" />
<glyph unicode="&#x203a;" horiz-adv-x="256" d="M0 0v64h64v-64h-64zM64 64v192h64v-64h64v-64h-64v-64h-64zM0 256v64h64v-64h-64z" />
<glyph unicode="&#x20ac;" horiz-adv-x="448" d="M320 64v64h64v-64h-64zM320 320v64h64v-64h-64zM64 0v64h-64v64h-64v64h64v64h-64v64h64v64h64v64h256v-64h-192v-64h128v-64h-128v-64h128v-64h-128v-64h192v-64h-256z" />
<glyph unicode="&#x2122;" horiz-adv-x="512" d="M64 256v128h-64v64h192v-64h-64v-128h-64zM256 256v192h192v-192h-64v64h-64v-64h-64z" />
<glyph unicode="&#x25fc;" horiz-adv-x="320" d="M0 320h320v-320h-320v320z" />
<glyph unicode="&#xfb00;" horiz-adv-x="512" d="M64 0v256h-64v64h64v64h64v64h128v-64h-64v-64h64v64h64v64h128v-64h-64v-64h64v-64h-64v-256h-128v256h-64v-256h-128z" />
<glyph unicode="&#xfb01;" horiz-adv-x="448" d="M64 0v256h-64v64h64v64h64v64h128v-64h-64v-64h192v-320h-128v256h-64v-256h-128zM320 384v64h64v-64h-64z" />
<glyph unicode="&#xfb02;" horiz-adv-x="512" d="M64 0v256h-64v64h64v64h64v64h320v-448h-128v384h-128v-64h64v-64h-64v-256h-128z" />
<glyph unicode="&#xfb03;" horiz-adv-x="640" d="M512 0v320h64v-320h-64zM64 0v256h-64v64h64v64h64v64h128v-64h-64v-64h64v64h64v64h128v-64h-64v-64h64v-64h-64v-256h-128v256h-64v-256h-128zM512 384v64h64v-64h-64z" />
<glyph unicode="&#xfb04;" horiz-adv-x="640" d="M64 0v256h-64v64h64v64h64v64h128v-64h-64v-64h64v64h64v64h128v-64h-64v-64h64v-64h-64v-256h-128v256h-64v-256h-128zM512 0v448h64v-448h-64z" />
<glyph unicode="&#xfb06;" horiz-adv-x="448" d="M0 0v64h128v64h-128v192h128v64h64v-128h-128v-64h128v-192h-192zM256 0v384h-64v64h128v-128h64v-64h-64v-192h64v-64h-128z" />
</font>
</defs>
</svg>
