<?xml version="1.0" standalone="no"?>
<!DOCTYPE svg PUBLIC "-//W3C//DTD SVG 1.1//EN" "http://www.w3.org/Graphics/SVG/1.1/DTD/svg11.dtd" >
<svg xmlns="http://www.w3.org/2000/svg">
<metadata></metadata>
<defs>
<font id="zx_spectrum7_boldregular" horiz-adv-x="400" >
<font-face units-per-em="1000" ascent="750" descent="-250" />
<missing-glyph horiz-adv-x="500" />
<glyph unicode="&#xd;" />
<glyph unicode=" " />
<glyph unicode="!" d="M100 300h100v-200h-100v200zM100 50h100v-50h-100v50z" />
<glyph unicode="&#x22;" d="M100 350h100v-100h-100v100zM250 350h100v-100h-100v100z" />
<glyph unicode="#" d="M50 300h50v50h100v-50h50v50h100v-50h50v-50h-50v-100h50v-50h-50v-50h-100v50h-50v-50h-100v50h-50v50h50v100h-50v50zM250 250h-50v-100h50v100z" />
<glyph unicode="$" d="M50 300h100v50h100v-50h100v-50h-100v-50h100v-150h-100v-50h-100v50h-100v50h100v50h-100v150zM100 200h50v50h-50v-50zM250 100h50v50h-50v-50z" />
<glyph unicode="%" d="M50 300h150v-100h50v50h50v50h100v-50h-50v-50h-50v-50h-50v-50h150v-100h-150v100h-50v-50h-50v-50h-100v50h50v50h50v50h50v50h-150v100z" />
<glyph unicode="&#x26;" d="M100 250h50v50h100v-50h50v-50h-50v-50h50v-50h50v50h50v-50h-50v-50h50v-50h-50v50h-50v-50h-200v50h-50v50h50v50h50v50h-50v50zM150 50h100v50h-100v-50zM150 200h100v50h-100v-50z" />
<glyph unicode="'" d="M200 350h50v50h100v-50h-50v-50h-100v50z" />
<glyph unicode="(" d="M200 250h50v50h100v-50h-50v-200h50v-50h-100v50h-50v200z" />
<glyph unicode=")" d="M100 300h100v-50h50v-200h-50v-50h-100v50h50v200h-50v50z" />
<glyph unicode="*" d="M100 250h50v-50h100v50h50v-50h-50v-50h100v-50h-100v-50h50v-50h-50v50h-100v-50h-50v50h50v50h-100v50h100v50h-50v50z" />
<glyph unicode="+" d="M50 150h100v100h50v-100h100v-50h-100v-100h-50v100h-100v50z" />
<glyph unicode="," d="M150 50h50v100h100v-100h-50v-50h-100v50z" />
<glyph unicode="-" d="M50 150h300v-50h-300v50z" />
<glyph unicode="." d="M150 100h100v-100h-100v100z" />
<glyph unicode="/" d="M50 50h50v50h50v50h50v50h50v50h100v-50h-50v-50h-50v-50h-50v-50h-50v-50h-100v50z" />
<glyph unicode="0" d="M50 250h50v50h250v-50h50v-200h-50v-50h-250v50h-50v200zM150 250v-100h50v50h50v50h-100zM200 100v-50h100v100h-50v-50h-50z" />
<glyph unicode="1" d="M50 250h50v50h150v-250h100v-50h-300v50h100v150h-100v50z" />
<glyph unicode="2" d="M50 250h50v50h250v-50h50v-100h-50v-50h-200v-50h250v-50h-350v100h50v50h200v100h-150v-50h-100v50z" />
<glyph unicode="3" d="M50 250h50v50h250v-50h50v-50h-50v-50h50v-100h-50v-50h-250v50h-50v50h100v-50h150v100h-100v50h100v50h-150v-50h-100v50z" />
<glyph unicode="4" d="M50 150h50v50h50v50h50v50h100v-200h100v-50h-100v-50h-100v50h-150v100zM150 100h50v50h-50v-50z" />
<glyph unicode="5" d="M50 300h350v-50h-250v-50h200v-50h50v-100h-50v-50h-250v50h-50v50h100v-50h150v100h-250v150z" />
<glyph unicode="6" d="M50 250h50v50h250v-50h-200v-50h200v-50h50v-100h-50v-50h-250v50h-50v200zM150 50h150v100h-150v-100z" />
<glyph unicode="7" d="M50 300h350v-100h-50v-50h-50v-50h-50v-100h-100v100h50v50h50v50h50v50h-250v50z" />
<glyph unicode="8" d="M50 250h50v50h250v-50h50v-50h-50v-50h50v-100h-50v-50h-250v50h-50v100h50v50h-50v50zM150 50h150v100h-150v-100zM150 200h150v50h-150v-50z" />
<glyph unicode="9" d="M50 250h50v50h250v-50h50v-200h-50v-50h-250v50h200v50h-200v50h-50v100zM150 150h150v100h-150v-100z" />
<glyph unicode=":" d="M150 200h100v-50h-100v50zM150 50h100v-50h-100v50z" />
<glyph unicode=";" d="M100 50h50v100h100v-100h-50v-50h-100v50zM150 300h100v-50h-100v50z" />
<glyph unicode="&#x3c;" d="M150 150h50v50h50v50h100v-50h-50v-50h-50v-50h50v-50h50v-50h-100v50h-50v50h-50v50z" />
<glyph unicode="=" d="M50 250h300v-50h-300v50zM50 150h300v-50h-300v50z" />
<glyph unicode="&#x3e;" d="M100 250h100v-50h50v-50h50v-50h-50v-50h-50v-50h-100v50h50v50h50v50h-50v50h-50v50z" />
<glyph unicode="?" d="M50 250h50v50h250v-50h50v-50h-50v-50h-50v-50h-100v50h50v50h50v50h-150v-50h-100v50zM200 50h100v-50h-100v50z" />
<glyph unicode="@" d="M50 250h50v50h250v-50h50v-150h-200v100h50v-50h50v100h-150v-200h200v-50h-250v50h-50v200z" />
<glyph unicode="A" d="M50 250h50v50h250v-50h50v-250h-100v100h-150v-100h-100v250zM150 150h150v100h-150v-100z" />
<glyph unicode="B" d="M50 300h300v-50h50v-50h-50v-50h50v-100h-50v-50h-300v300zM150 50h150v100h-150v-100zM150 200h150v50h-150v-50z" />
<glyph unicode="C" d="M50 250h50v50h250v-50h50v-50h-100v50h-150v-200h150v50h100v-50h-50v-50h-250v50h-50v200z" />
<glyph unicode="D" d="M50 300h250v-50h50v-50h50v-100h-50v-50h-50v-50h-250v300zM150 50h100v50h50v100h-50v50h-100v-200z" />
<glyph unicode="E" d="M50 300h350v-50h-250v-50h200v-50h-200v-100h250v-50h-350v300z" />
<glyph unicode="F" d="M50 300h350v-50h-250v-50h200v-50h-200v-150h-100v300z" />
<glyph unicode="G" d="M50 250h50v50h250v-50h50v-50h-100v50h-150v-200h150v50h-100v50h200v-100h-50v-50h-250v50h-50v200z" />
<glyph unicode="H" d="M50 300h100v-100h150v100h100v-300h-100v150h-150v-150h-100v300z" />
<glyph unicode="I" d="M50 300h300v-50h-100v-200h100v-50h-300v50h100v200h-100v50z" />
<glyph unicode="J" d="M50 150h100v-100h150v250h100v-250h-50v-50h-250v50h-50v100z" />
<glyph unicode="K" d="M50 300h100v-100h50v50h50v50h100v-50h-50v-50h-50v-50h50v-50h50v-50h50v-50h-100v50h-50v50h-50v50h-50v-150h-100v300z" />
<glyph unicode="L" d="M50 300h100v-250h250v-50h-350v300z" />
<glyph unicode="M" d="M50 300h100v-50h50v-50h50v50h50v50h100v-300h-100v200h-50v-100h-50v100h-50v-200h-100v300z" />
<glyph unicode="N" d="M50 300h100v-50h50v-50h50v-50h50v150h100v-300h-100v50h-50v50h-50v50h-50v-150h-100v300z" />
<glyph unicode="O" d="M50 250h50v50h250v-50h50v-200h-50v-50h-250v50h-50v200zM150 50h150v200h-150v-200z" />
<glyph unicode="P" d="M50 300h300v-50h50v-100h-50v-50h-200v-100h-100v300zM150 150h150v100h-150v-100z" />
<glyph unicode="Q" d="M50 250h50v50h250v-50h50v-200h-50v-50h-250v50h-50v200zM200 150h50v-50h50v150h-150v-200h100v50h-50v50z" />
<glyph unicode="R" d="M50 300h300v-50h50v-100h-50v-100h50v-50h-100v50h-50v50h-100v-100h-100v300zM150 150h150v100h-150v-100z" />
<glyph unicode="S" d="M50 250h50v50h250v-50h-200v-50h200v-50h50v-100h-50v-50h-250v50h-50v50h100v-50h150v100h-200v50h-50v50z" />
<glyph unicode="T" d="M50 300h300v-50h-100v-250h-100v250h-100v50z" />
<glyph unicode="U" d="M50 300h100v-250h150v250h100v-250h-50v-50h-250v50h-50v250z" />
<glyph unicode="V" d="M50 300h100v-200h50v-50h50v50h50v200h100v-200h-50v-50h-50v-50h-150v50h-50v50h-50v200z" />
<glyph unicode="W" d="M50 300h100v-200h50v50h50v-50h50v200h100v-250h-50v-50h-100v50h-50v-50h-100v50h-50v250z" />
<glyph unicode="X" d="M50 300h100v-50h50v-50h50v50h50v50h100v-50h-50v-50h-50v-100h50v-50h50v-50h-100v50h-50v50h-50v-50h-50v-50h-100v50h50v50h50v100h-50v50h-50v50z" />
<glyph unicode="Y" d="M50 300h100v-100h100v100h100v-100h-50v-50h-50v-150h-100v150h-50v50h-50v100z" />
<glyph unicode="Z" d="M50 300h350v-50h-50v-50h-50v-50h-50v-50h-50v-50h200v-50h-350v50h50v50h50v50h50v50h50v50h-200v50z" />
<glyph unicode="[" d="M200 300h200v-50h-100v-200h100v-50h-200v300z" />
<glyph unicode="\" d="M50 250h100v-50h50v-50h50v-50h50v-50h50v-50h-100v50h-50v50h-50v50h-50v50h-50v50z" />
<glyph unicode="]" d="M50 300h200v-300h-200v50h100v200h-100v50z" />
<glyph unicode="^" d="M50 250h50v50h50v50h100v-50h50v-50h50v-50h-50v50h-50v-200h-100v200h-50v-50h-50v50z" />
<glyph unicode="_" d="M0 50h400v-50h-400v50z" />
<glyph unicode="`" d="M200 400h100v-50h50v-50h-100v50h-50v50z" />
<glyph unicode="a" d="M100 250h200v-50h50v-200h-250v50h-50v50h50v50h150v50h-150v50zM150 100v-50h100v50h-100z" />
<glyph unicode="b" d="M50 300h100v-100h150v-50h50v-100h-50v-50h-250v300zM250 150h-100v-100h100v100z" />
<glyph unicode="c" d="M100 200h50v50h200v-50h-150v-150h150v-50h-200v50h-50v150z" />
<glyph unicode="d" d="M50 150h50v50h150v100h100v-300h-250v50h-50v100zM150 50h100v100h-100v-100z" />
<glyph unicode="e" d="M50 200h50v50h200v-50h50v-50h-50v-50h-150v-50h200v-50h-250v50h-50v150zM150 200v-50h100v50h-100z" />
<glyph unicode="f" d="M150 250h50v50h150v-50h-100v-50h50v-50h-50v-150h-100v250z" />
<glyph unicode="g" d="M50 200h50v50h250v-250h-50v-50h-200v50h150v50h-150v50h-50v100zM150 100h100v100h-100v-100z" />
<glyph unicode="h" d="M50 300h100v-100h150v-50h50v-150h-100v150h-100v-150h-100v300z" />
<glyph unicode="i" d="M100 200h150v-150h50v-50h-200v50h50v100h-50v50zM150 300h100v-50h-100v50z" />
<glyph unicode="j" d="M50 50h100v-50h50v200h100v-200h-50v-50h-150v50h-50v50zM200 300h100v-50h-100v50z" />
<glyph unicode="k" d="M100 300h100v-150h50v50h50v50h100v-50h-50v-50h-50v-50h50v-50h50v-50h-100v50h-50v50h-50v-100h-100v300z" />
<glyph unicode="l" d="M150 300h100v-250h100v-50h-150v50h-50v250z" />
<glyph unicode="m" d="M50 250h300v-50h50v-200h-100v200h-50v-200h-50v200h-50v-200h-100v250z" />
<glyph unicode="n" d="M50 250h250v-50h50v-200h-100v200h-100v-200h-100v250z" />
<glyph unicode="o" d="M50 200h50v50h200v-50h50v-150h-50v-50h-200v50h-50v150zM250 200h-100v-150h100v150z" />
<glyph unicode="p" d="M50 250h250v-50h50v-100h-50v-50h-150v-100h-100v300zM150 100h100v100h-100v-100z" />
<glyph unicode="q" d="M50 200h50v50h250v-250h50v-50h-150v100h-150v50h-50v100zM150 100h100v100h-100v-100z" />
<glyph unicode="r" d="M100 200h50v50h200v-50h-150v-200h-100v200z" />
<glyph unicode="s" d="M50 200h50v50h200v-50h-150v-50h150v-50h50v-50h-50v-50h-250v50h200v50h-150v50h-50v50z" />
<glyph unicode="t" d="M100 250h50v50h100v-50h50v-50h-50v-150h100v-50h-150v50h-50v150h-50v50z" />
<glyph unicode="u" d="M50 250h100v-200h100v200h100v-200h-50v-50h-200v50h-50v200z" />
<glyph unicode="v" d="M50 250h100v-100h100v100h100v-100h-50v-100h-50v-50h-100v50h-50v100h-50v100z" />
<glyph unicode="w" d="M50 250h100v-200h50v150h50v-150h50v200h100v-200h-50v-50h-250v50h-50v200z" />
<glyph unicode="x" d="M50 250h100v-50h100v50h100v-50h-50v-50h-50v-50h50v-50h50v-50h-100v50h-100v-50h-100v50h50v50h50v50h-50v50h-50v50z" />
<glyph unicode="y" d="M50 250h100v-150h100v150h100v-250h-50v-50h-200v50h150v50h-150v50h-50v150z" />
<glyph unicode="z" d="M50 250h300v-50h-50v-50h-50v-50h-50v-50h150v-50h-300v50h50v50h50v50h50v50h-150v50z" />
<glyph unicode="{" d="M50 200h100v100h200v-50h-100v-50h-50v-50h50v-100h100v-50h-200v150h-100v50z" />
<glyph unicode="|" d="M150 300h100v-300h-100v300z" />
<glyph unicode="}" d="M50 300h200v-100h100v-50h-100v-150h-200v50h100v100h50v50h-50v50h-100v50z" />
<glyph unicode="~" d="M100 350h50v50h100v-50h50v50h50v-50h-50v-50h-100v50h-50v-50h-50v50z" />
<glyph unicode="&#xa1;" d="M100 200h100v-200h-100v200zM100 300h100v-50h-100v50z" />
<glyph unicode="&#xa2;" d="M50 200h50v50h100v50h100v-50h100v-50h-100v-150h100v-50h-100v-50h-100v50h-100v50h-50v150zM200 200h-50v-150h50v150z" />
<glyph unicode="&#xa3;" d="M100 200h50v50h50v50h150v-50h-100v-50h50v-50h-50v-100h100v-50h-250v50h50v100h-50v50z" />
<glyph unicode="&#xa4;" d="M50 300h50v-50h150v50h50v-50h-50v-150h50v-50h-50v50h-150v-50h-50v50h50v150h-50v50zM150 150h50v50h-50v-50z" />
<glyph unicode="&#xa5;" d="M50 300h100v-50h100v50h100v-50h-50v-50h-50v-50h100v-50h-100v-50h100v-50h-100v-50h-100v50h-100v50h100v50h-100v50h100v50h-50v50h-50v50z" />
<glyph unicode="&#xa6;" d="M150 300h100v-100h-100v100zM150 100h100v-100h-100v100z" />
<glyph unicode="&#xa7;" d="M50 300h300v-250h-200v-50h200v-50h-300v250h200v50h-200v50zM150 100h100v50h-100v-50z" />
<glyph unicode="&#xa8;" d="M100 300h50v-50h-50v50zM250 300h50v-50h-50v50z" />
<glyph unicode="&#xa9;" d="M0 350h50v50h250v-50h50v-300h-50v-50h-250v50h-50v300zM150 150h100v-50h50v200h-50v-50h-100v-100zM100 300h-50v-200h50v200zM100 350v-50h150v50h-150zM100 50h150v50h-150v-50z" />
<glyph unicode="&#xaa;" d="M150 300h150v-50h50v-200h-200v50h-50v50h50v50h100v50h-100v50zM200 100h50v50h-50v-50z" />
<glyph unicode="&#xab;" d="M50 200h50v50h50v50h100v-50h50v50h100v-50h-50v-50h-50v-100h50v-50h50v-50h-100v50h-50v-50h-100v50h-50v50h-50v100zM150 100h50v100h-50v-100zM200 50h50v50h-50v-50zM200 200h50v50h-50v-50z" />
<glyph unicode="&#xac;" d="M50 300h350v-150h-100v100h-250v50z" />
<glyph unicode="&#xad;" d="M100 150h250v-50h-250v50z" />
<glyph unicode="&#xae;" d="M0 350h50v50h250v-50h50v-300h-50v-50h-250v50h-50v300zM300 300h-50v-100h-50v-50h50v-50h50v200zM200 150h-50v-50h-50v-50h150v50h-50v50zM100 300h-50v-200h50v200zM100 300h150v50h-150v-50zM150 200h50v50h-50v-50z" />
<glyph unicode="&#xb0;" d="M100 250h50v50h150v-50h50v-100h-50v-50h-150v50h-50v100zM200 150h50v100h-50v-100z" />
<glyph unicode="&#xb1;" d="M50 200h100v100h100v-100h100v-50h-100v-100h-100v100h-100v50zM50 0h300v-50h-300v50z" />
<glyph unicode="&#xb2;" d="M100 300h200v-50h50v-50h-50v-50h-100v-50h150v-50h-250v100h50v50h100v50h-150v50z" />
<glyph unicode="&#xb3;" d="M150 200h100v50h-150v50h200v-50h50v-50h-50v-50h50v-50h-50v-50h-200v50h150v50h-100v50z" />
<glyph unicode="&#xb4;" d="M200 350h50v50h100v-50h-50v-50h-100v50z" />
<glyph unicode="&#xb5;" d="M50 300h100v-200h50v-50h50v50h50v200h100v-300h-100v50h-50v-50h-50v50h-50v-100h-100v350z" />
<glyph unicode="&#xb6;" d="M50 300h350v-50h-50v-250h-100v250h-50v-250h-100v150h-50v150z" />
<glyph unicode="&#xb7;" d="M150 200h100v-100h-100v100z" />
<glyph unicode="&#xb8;" d="M50 -50h100v50h100v-50h-50v-50h-150v50z" />
<glyph unicode="&#xb9;" d="M100 300h150v-200h50v-50h-200v50h50v150h-50v50z" />
<glyph unicode="&#xba;" d="M100 250h50v50h150v-50h50v-150h-50v-50h-150v50h-50v150zM250 250h-50v-150h50v150z" />
<glyph unicode="&#xbb;" d="M50 300h100v-50h50v50h100v-50h50v-50h50v-100h-50v-50h-50v-50h-100v50h-50v-50h-100v50h50v50h50v100h-50v50h-50v50zM300 200h-50v-100h50v100zM200 50h50v50h-50v-50zM200 200h50v50h-50v-50z" />
<glyph unicode="&#xbf;" d="M50 100h50v50h50v50h100v-50h-50v-50h-50v-50h150v50h100v-50h-50v-50h-250v50h-50v50zM150 300h100v-50h-100v50z" />
<glyph unicode="&#xc0;" d="M50 250h50v50h250v-50h50v-250h-100v100h-150v-100h-100v250zM150 150h150v100h-150v-100zM100 450h100v-50h50v-50h-100v50h-50v50z" />
<glyph unicode="&#xc1;" d="M50 250h50v50h250v-50h50v-250h-100v100h-150v-100h-100v250zM150 150h150v100h-150v-100zM200 400h50v50h100v-50h-50v-50h-100v50z" />
<glyph unicode="&#xc2;" d="M50 250h50v50h250v-50h50v-250h-100v100h-150v-100h-100v250zM100 400h50v50h150v-50h50v-50h-100v50h-50v-50h-100v50zM150 150h150v100h-150v-100z" />
<glyph unicode="&#xc3;" d="M50 250h50v50h250v-50h50v-250h-100v100h-150v-100h-100v250zM100 400h50v50h100v-50h50v50h50v-50h-50v-50h-100v50h-50v-50h-50v50zM150 250v-100h150v100h-150z" />
<glyph unicode="&#xc4;" d="M50 250h50v50h250v-50h50v-250h-100v100h-150v-100h-100v250zM150 150h150v100h-150v-100zM100 400h100v-50h-100v50zM250 400h100v-50h-100v50z" />
<glyph unicode="&#xc5;" d="M50 250h50v50h50v100h150v-100h50v-50h50v-250h-100v100h-150v-100h-100v250zM150 150h150v100h-150v-100zM200 300h50v50h-50v-50z" />
<glyph unicode="&#xc6;" d="M50 250h50v50h300v-50h-100v-50h100v-50h-100v-100h100v-50h-200v150h-100v-150h-50v250zM100 250v-50h100v50h-100z" />
<glyph unicode="&#xc7;" d="M50 250h50v50h250v-50h50v-50h-100v50h-150v-200h150v50h100v-50h-50v-50h-100v-50h-50v-50h-150v50h100v50h-50v50h-50v200z" />
<glyph unicode="&#xc8;" d="M50 300h350v-50h-250v-50h200v-50h-200v-100h250v-50h-350v300zM100 450h100v-50h50v-50h-100v50h-50v50z" />
<glyph unicode="&#xc9;" d="M50 300h350v-50h-250v-50h200v-50h-200v-100h250v-50h-350v300zM200 400h50v50h100v-50h-50v-50h-100v50z" />
<glyph unicode="&#xca;" d="M50 300h350v-50h-250v-50h200v-50h-200v-100h250v-50h-350v300zM100 400h50v50h150v-50h50v-50h-100v50h-50v-50h-100v50z" />
<glyph unicode="&#xcb;" d="M50 300h350v-50h-250v-50h200v-50h-200v-100h250v-50h-350v300zM250 400h100v-50h-100v50zM100 400h100v-50h-100v50z" />
<glyph unicode="&#xcc;" d="M50 50h100v200h-100v50h300v-50h-100v-200h100v-50h-300v50zM100 450h100v-50h50v-50h-100v50h-50v50z" />
<glyph unicode="&#xcd;" d="M50 300h300v-50h-100v-200h100v-50h-300v50h100v200h-100v50zM150 400h50v50h100v-50h-50v-50h-100v50z" />
<glyph unicode="&#xce;" d="M50 300h300v-50h-100v-200h100v-50h-300v50h100v200h-100v50zM50 400h50v50h200v-50h50v-50h-100v50h-100v-50h-100v50z" />
<glyph unicode="&#xcf;" d="M50 50h100v200h-100v50h300v-50h-100v-200h100v-50h-300v50zM250 400h100v-50h-100v50zM50 400h100v-50h-100v50z" />
<glyph unicode="&#xd0;" d="M0 200h50v100h250v-50h50v-50h50v-100h-50v-50h-50v-50h-250v150h-50v50zM300 200h-50v-50h-100v-100h100v50h50v100zM150 250v-50h100v50h-100z" />
<glyph unicode="&#xd1;" d="M50 300h100v-50h50v-50h50v-50h50v150h100v-300h-100v50h-50v50h-50v50h-50v-150h-100v300zM100 400h50v50h100v-50h50v50h50v-50h-50v-50h-100v50h-50v-50h-50v50z" />
<glyph unicode="&#xd2;" d="M50 250h50v50h250v-50h50v-200h-50v-50h-250v50h-50v200zM150 50h150v200h-150v-200zM100 450h100v-50h50v-50h-100v50h-50v50z" />
<glyph unicode="&#xd3;" d="M50 250h50v50h250v-50h50v-200h-50v-50h-250v50h-50v200zM150 50h150v200h-150v-200zM200 400h50v50h100v-50h-50v-50h-100v50z" />
<glyph unicode="&#xd4;" d="M50 250h50v50h250v-50h50v-200h-50v-50h-250v50h-50v200zM300 250h-150v-200h150v200zM100 400h50v50h150v-50h50v-50h-100v50h-50v-50h-100v50z" />
<glyph unicode="&#xd5;" d="M50 250h50v50h250v-50h50v-200h-50v-50h-250v50h-50v200zM300 250h-150v-200h150v200zM100 400h50v50h100v-50h50v50h50v-50h-50v-50h-100v50h-50v-50h-50v50z" />
<glyph unicode="&#xd6;" d="M50 250h50v50h250v-50h50v-200h-50v-50h-250v50h-50v200zM150 50h150v200h-150v-200zM250 400h100v-50h-100v50zM100 400h100v-50h-100v50z" />
<glyph unicode="&#xd7;" d="M100 250h50v-50h100v50h50v-50h-50v-50h50v-50h-50v50h-100v-50h-50v50h50v50h-50v50z" />
<glyph unicode="&#xd8;" d="M50 250h50v50h250v-50h50v-200h-50v-50h-250v50h-50v200zM150 250v-100h50v50h50v50h-100zM200 100v-50h100v100h-50v-50h-50z" />
<glyph unicode="&#xd9;" d="M50 300h100v-250h150v250h100v-250h-50v-50h-250v50h-50v250zM100 450h100v-50h50v-50h-100v50h-50v50z" />
<glyph unicode="&#xda;" d="M50 300h100v-250h150v250h100v-250h-50v-50h-250v50h-50v250zM200 400h50v50h100v-50h-50v-50h-100v50z" />
<glyph unicode="&#xdb;" d="M50 300h100v-250h150v250h100v-250h-50v-50h-250v50h-50v250zM100 400h50v50h150v-50h50v-50h-100v50h-50v-50h-100v50z" />
<glyph unicode="&#xdc;" d="M50 300h100v-250h150v250h100v-250h-50v-50h-250v50h-50v250zM250 400h100v-50h-100v50zM100 400h100v-50h-100v50z" />
<glyph unicode="&#xdd;" d="M50 300h100v-100h100v100h100v-100h-50v-50h-50v-150h-100v150h-50v50h-50v100zM150 400h50v50h100v-50h-50v-50h-100v50z" />
<glyph unicode="&#xde;" d="M50 300h100v-50h200v-50h50v-100h-50v-50h-200v-50h-100v300zM150 100h150v100h-150v-100z" />
<glyph unicode="&#xdf;" d="M50 250h50v50h200v-50h50v-50h-50v-50h50v-100h-50v-50h-250v250zM150 50h100v100h-100v-100zM150 250v-50h100v50h-100z" />
<glyph unicode="&#xe0;" d="M100 250h200v-50h50v-200h-250v50h-50v50h50v50h150v50h-150v50zM100 400h100v-50h50v-50h-100v50h-50v50zM150 50h100v50h-100v-50z" />
<glyph unicode="&#xe1;" d="M50 100h50v50h150v50h-150v50h200v-50h50v-200h-250v50h-50v50zM150 350h50v50h100v-50h-50v-50h-100v50zM150 50h100v50h-100v-50z" />
<glyph unicode="&#xe2;" d="M100 250h200v-50h50v-200h-250v50h-50v50h50v50h150v50h-150v50zM100 350h50v50h100v-50h50v-50h-50v50h-100v-50h-50v50zM150 50h100v50h-100v-50z" />
<glyph unicode="&#xe3;" d="M100 250h200v-50h50v-200h-250v50h-50v50h50v50h150v50h-150v50zM100 350h50v50h100v-50h50v50h50v-50h-50v-50h-100v50h-50v-50h-50v50zM150 50h100v50h-100v-50z" />
<glyph unicode="&#xe4;" d="M100 250h200v-50h50v-200h-250v50h-50v50h50v50h150v50h-150v50zM150 50h100v50h-100v-50zM100 350h50v-50h-50v50zM250 350h50v-50h-50v50z" />
<glyph unicode="&#xe5;" d="M100 250h200v-50h50v-200h-250v50h-50v50h50v50h150v50h-150v50zM100 400h50v50h100v-50h50v-50h-50v-50h-100v50h-50v50zM150 350h100v50h-100v-50zM150 50h100v50h-100v-50z" />
<glyph unicode="&#xe6;" d="M0 250h350v-50h50v-50h-50v-50h-100v-50h150v-50h-350v50h-50v50h50v50h100v50h-150v50zM100 50h50v50h-50v-50zM250 150h50v50h-50v-50z" />
<glyph unicode="&#xe7;" d="M50 200h50v50h250v-50h-200v-150h200v-50h-100v-50h-50v-50h-150v50h100v50h-50v50h-50v150z" />
<glyph unicode="&#xe8;" d="M50 200h50v50h200v-50h50v-50h-50v-50h-150v-50h200v-50h-250v50h-50v150zM100 400h100v-50h50v-50h-100v50h-50v50zM150 150h100v50h-100v-50z" />
<glyph unicode="&#xe9;" d="M50 200h50v50h200v-50h50v-50h-50v-50h-150v-50h200v-50h-250v50h-50v150zM150 350h50v50h100v-50h-50v-50h-100v50zM150 200v-50h100v50h-100z" />
<glyph unicode="&#xea;" d="M50 200h50v50h200v-50h50v-50h-50v-50h-150v-50h200v-50h-250v50h-50v150zM250 350h-100v-50h-50v50h50v50h100v-50h50v-50h-50v50zM150 200v-50h100v50h-100z" />
<glyph unicode="&#xeb;" d="M50 200h50v50h200v-50h50v-50h-50v-50h-150v-50h200v-50h-250v50h-50v150zM150 200v-50h100v50h-100zM250 350h50v-50h-50v50zM100 350h50v-50h-50v50z" />
<glyph unicode="&#xec;" d="M100 200h200v-50h-50v-100h50v-50h-200v50h50v100h-50v50zM100 350h100v-50h50v-50h-100v50h-50v50z" />
<glyph unicode="&#xed;" d="M100 200h200v-50h-50v-100h50v-50h-200v50h50v100h-50v50zM150 300h50v50h100v-50h-50v-50h-100v50z" />
<glyph unicode="&#xee;" d="M100 200h200v-50h-50v-100h50v-50h-200v50h50v100h-50v50zM100 300h50v50h100v-50h50v-50h-50v50h-100v-50h-50v50z" />
<glyph unicode="&#xef;" d="M100 200h200v-50h-50v-100h50v-50h-200v50h50v100h-50v50zM250 300h50v-50h-50v50zM100 300h50v-50h-50v50z" />
<glyph unicode="&#xf0;" d="M50 150h50v50h150v50h-100v50h150v-50h50v-200h-50v-50h-200v50h-50v100zM150 50h100v100h-100v-100z" />
<glyph unicode="&#xf1;" d="M50 250h250v-50h50v-200h-100v200h-100v-200h-100v250zM100 350h50v50h100v-50h50v50h50v-50h-50v-50h-100v50h-50v-50h-50v50z" />
<glyph unicode="&#xf2;" d="M50 200h50v50h200v-50h50v-150h-50v-50h-200v50h-50v150zM150 50h100v150h-100v-150zM100 400h100v-50h50v-50h-100v50h-50v50z" />
<glyph unicode="&#xf3;" d="M50 200h50v50h200v-50h50v-150h-50v-50h-200v50h-50v150zM250 200h-100v-150h100v150zM150 350h50v50h100v-50h-50v-50h-100v50z" />
<glyph unicode="&#xf4;" d="M50 200h50v50h200v-50h50v-150h-50v-50h-200v50h-50v150zM150 50h100v150h-100v-150zM100 350h50v50h100v-50h50v-50h-50v50h-100v-50h-50v50z" />
<glyph unicode="&#xf5;" d="M50 200h50v50h200v-50h50v-150h-50v-50h-200v50h-50v150zM100 350h50v50h100v-50h50v50h50v-50h-50v-50h-100v50h-50v-50h-50v50zM150 50h100v150h-100v-150z" />
<glyph unicode="&#xf6;" d="M50 200h50v50h200v-50h50v-150h-50v-50h-200v50h-50v150zM250 200h-100v-150h100v150zM250 350h50v-50h-50v50zM100 350h50v-50h-50v50z" />
<glyph unicode="&#xf7;" d="M50 150h300v-50h-300v50zM150 250h100v-50h-100v50zM150 50h100v-50h-100v50z" />
<glyph unicode="&#xf8;" d="M50 200h50v50h200v-50h50v-150h-50v-50h-200v50h-50v150zM100 200v-100h50v50h50v50h-100zM300 150h-50v-50h-50v-50h100v100z" />
<glyph unicode="&#xf9;" d="M50 250h100v-200h100v200h100v-200h-50v-50h-200v50h-50v200zM100 400h100v-50h50v-50h-100v50h-50v50z" />
<glyph unicode="&#xfa;" d="M50 250h100v-200h100v200h100v-200h-50v-50h-200v50h-50v200zM150 350h50v50h100v-50h-50v-50h-100v50z" />
<glyph unicode="&#xfb;" d="M50 250h100v-200h100v200h100v-200h-50v-50h-200v50h-50v200zM100 350h50v50h100v-50h50v-50h-50v50h-100v-50h-50v50z" />
<glyph unicode="&#xfc;" d="M50 250h100v-200h100v200h100v-200h-50v-50h-200v50h-50v200zM250 350h50v-50h-50v50zM100 350h50v-50h-50v50z" />
<glyph unicode="&#xfd;" d="M50 250h100v-150h100v150h100v-250h-50v-50h-200v50h150v50h-150v50h-50v150zM150 350h50v50h100v-50h-50v-50h-100v50z" />
<glyph unicode="&#xfe;" d="M50 300h100v-50h150v-50h50v-150h-50v-50h-150v-50h-100v350zM150 50h100v150h-100v-150z" />
<glyph unicode="&#xff;" d="M50 250h100v-150h100v150h100v-250h-50v-50h-200v50h150v50h-150v50h-50v150zM100 350h50v-50h-50v50zM250 350h50v-50h-50v50z" />
<glyph unicode="&#x152;" d="M50 250h50v50h300v-50h-100v-50h100v-50h-100v-100h100v-50h-300v50h-50v200zM100 50h100v200h-100v-200z" />
<glyph unicode="&#x153;" d="M50 200h50v50h200v-50h50v-100h-100v-50h100v-50h-250v50h-50v150zM150 200h-50v-150h50v150zM250 150h50v50h-50v-50z" />
<glyph unicode="&#x160;" d="M50 250h50v50h250v-50h-200v-50h200v-50h50v-100h-50v-50h-250v50h-50v50h100v-50h150v100h-200v50h-50v50zM100 450h100v-50h50v50h100v-50h-50v-50h-150v50h-50v50z" />
<glyph unicode="&#x161;" d="M50 200h50v50h200v-50h-150v-50h150v-50h50v-50h-50v-50h-250v50h200v50h-150v50h-50v50zM100 400h100v-50h50v50h100v-50h-50v-50h-150v50h-50v50z" />
<glyph unicode="&#x178;" d="M50 300h100v-100h100v100h100v-100h-50v-50h-50v-150h-100v150h-50v50h-50v100zM250 400h100v-50h-100v50zM50 400h100v-50h-100v50z" />
<glyph unicode="&#x17d;" d="M50 300h350v-50h-50v-50h-50v-50h-50v-50h-50v-50h200v-50h-350v50h50v50h50v50h50v50h50v50h-200v50zM100 450h100v-50h50v50h100v-50h-50v-50h-150v50h-50v50z" />
<glyph unicode="&#x17e;" d="M50 250h300v-50h-50v-50h-50v-50h-50v-50h150v-50h-300v50h50v50h50v50h50v50h-150v50zM100 400h100v-50h50v50h100v-50h-50v-50h-150v50h-50v50z" />
<glyph unicode="&#x192;" d="M50 0h100v250h50v50h150v-50h-100v-50h50v-50h-50v-150h-50v-50h-150v50z" />
<glyph unicode="&#x2c6;" d="M50 200h50v50h50v50h100v-50h50v-50h50v-50h-100v50h-100v-50h-100v50z" />
<glyph unicode="&#x2dc;" d="M50 150h50v50h150v-50h50v50h100v-50h-50v-50h-150v50h-50v-50h-100v50z" />
<glyph unicode="&#x401;" d="M50 300h350v-50h-250v-50h200v-50h-200v-100h250v-50h-350v300zM250 400h100v-50h-100v50zM100 400h100v-50h-100v50z" />
<glyph unicode="&#x402;" d="M50 300h250v-50h-100v-50h150v-50h50v-100h-50v-50h-100v50h50v100h-100v-150h-100v250h-50v50z" />
<glyph unicode="&#x403;" d="M50 300h350v-50h-250v-250h-100v300zM200 400h50v50h100v-50h-50v-50h-100v50z" />
<glyph unicode="&#x404;" d="M50 250h50v50h250v-50h50v-50h-100v50h-150v-50h100v-50h-100v-100h150v50h100v-50h-50v-50h-250v50h-50v200z" />
<glyph unicode="&#x405;" d="M50 250h50v50h250v-50h-200v-50h200v-50h50v-100h-50v-50h-250v50h-50v50h100v-50h150v100h-200v50h-50v50z" />
<glyph unicode="&#x406;" d="M50 300h300v-50h-100v-200h100v-50h-300v50h100v200h-100v50z" />
<glyph unicode="&#x407;" d="M50 50h100v200h-100v50h300v-50h-100v-200h100v-50h-300v50zM250 400h100v-50h-100v50zM50 400h100v-50h-100v50z" />
<glyph unicode="&#x408;" d="M50 150h100v-100h150v250h100v-250h-50v-50h-250v50h-50v100z" />
<glyph unicode="&#x409;" d="M50 50h50v300h200v-150h50v-50h50v-100h-50v-50h-150v300h-50v-300h-100v50zM350 150h-50v-100h50v100z" />
<glyph unicode="&#x40a;" d="M50 350h50v-150h50v150h100v-150h50v-50h50v-100h-50v-50h-150v150h-50v-150h-50v350zM250 50h50v100h-50v-100z" />
<glyph unicode="&#x40b;" d="M50 300h250v-50h-100v-50h150v-50h50v-150h-100v150h-100v-150h-100v250h-50v50z" />
<glyph unicode="&#x40c;" d="M50 300h100v-100h50v50h50v50h100v-50h-50v-50h-50v-50h50v-50h50v-50h50v-50h-100v50h-50v50h-50v50h-50v-150h-100v300zM150 400h50v50h100v-50h-50v-50h-100v50z" />
<glyph unicode="&#x40e;" d="M50 300h100v-100h100v100h100v-100h-50v-50h-50v-150h-100v150h-50v50h-50v100zM100 450h50v-50h100v50h50v-50h-50v-50h-100v50h-50v50z" />
<glyph unicode="&#x40f;" d="M50 300h100v-250h100v250h100v-300h-100v-100h-100v100h-100v300z" />
<glyph unicode="&#x410;" d="M50 250h50v50h250v-50h50v-250h-100v100h-150v-100h-100v250zM150 150h150v100h-150v-100z" />
<glyph unicode="&#x411;" d="M50 300h350v-50h-250v-50h200v-50h50v-100h-50v-50h-300v300zM150 50h150v100h-150v-100z" />
<glyph unicode="&#x412;" d="M50 300h300v-50h50v-50h-50v-50h50v-100h-50v-50h-300v300zM150 50h150v100h-150v-100zM150 200h150v50h-150v-50z" />
<glyph unicode="&#x413;" d="M50 300h350v-50h-250v-250h-100v300z" />
<glyph unicode="&#x414;" d="M50 50h50v200h50v50h200v-250h50v-100h-100v50h-150v-50h-100v100zM250 250h-50v-200h50v200z" />
<glyph unicode="&#x415;" d="M50 300h350v-50h-250v-50h200v-50h-200v-100h250v-50h-350v300z" />
<glyph unicode="&#x416;" d="M50 300h100v-100h50v100h50v-100h50v100h100v-100h-50v-50h50v-150h-100v150h-50v-150h-50v150h-50v-150h-100v150h50v50h-50v100z" />
<glyph unicode="&#x417;" d="M50 250h50v50h250v-50h50v-50h-50v-50h50v-100h-50v-50h-250v50h-50v50h100v-50h150v100h-100v50h100v50h-150v-50h-100v50z" />
<glyph unicode="&#x418;" d="M50 300h100v-150h50v50h50v50h50v50h100v-300h-100v150h-50v-50h-50v-50h-50v-50h-100v300z" />
<glyph unicode="&#x419;" d="M50 300h100v-150h50v50h50v50h50v50h100v-300h-100v150h-50v-50h-50v-50h-50v-50h-100v300zM100 450h100v-50h50v50h100v-50h-50v-50h-150v50h-50v50z" />
<glyph unicode="&#x41a;" d="M50 300h100v-100h50v50h50v50h100v-50h-50v-50h-50v-50h50v-50h50v-50h50v-50h-100v50h-50v50h-50v50h-50v-150h-100v300z" />
<glyph unicode="&#x41b;" d="M50 50h50v250h300v-300h-100v250h-100v-200h-50v-50h-100v50z" />
<glyph unicode="&#x41c;" d="M50 300h100v-50h50v-50h50v50h50v50h100v-300h-100v200h-50v-100h-50v100h-50v-200h-100v300z" />
<glyph unicode="&#x41d;" d="M50 300h100v-100h150v100h100v-300h-100v150h-150v-150h-100v300z" />
<glyph unicode="&#x41e;" d="M50 250h50v50h250v-50h50v-200h-50v-50h-250v50h-50v200zM150 50h150v200h-150v-200z" />
<glyph unicode="&#x41f;" d="M50 300h350v-300h-100v250h-150v-250h-100v300z" />
<glyph unicode="&#x420;" d="M50 300h300v-50h50v-100h-50v-50h-200v-100h-100v300zM150 150h150v100h-150v-100z" />
<glyph unicode="&#x421;" d="M50 250h50v50h250v-50h50v-50h-100v50h-150v-200h150v50h100v-50h-50v-50h-250v50h-50v200z" />
<glyph unicode="&#x422;" d="M50 300h300v-50h-100v-250h-100v250h-100v50z" />
<glyph unicode="&#x423;" d="M50 300h100v-150h150v150h100v-250h-50v-50h-250v50h200v50h-200v50h-50v150z" />
<glyph unicode="&#x424;" d="M50 250h50v50h250v-50h50v-150h-50v-50h-100v-50h-50v50h-100v50h-50v150zM200 250h-50v-150h50v150zM250 100h50v150h-50v-150z" />
<glyph unicode="&#x425;" d="M50 300h100v-50h50v-50h50v50h50v50h100v-50h-50v-50h-50v-100h50v-50h50v-50h-100v50h-50v50h-50v-50h-50v-50h-100v50h50v50h50v100h-50v50h-50v50z" />
<glyph unicode="&#x426;" d="M50 300h100v-250h100v250h100v-250h50v-100h-100v50h-250v300z" />
<glyph unicode="&#x427;" d="M50 300h100v-150h150v150h100v-300h-100v100h-200v50h-50v150z" />
<glyph unicode="&#x428;" d="M50 300h100v-250h50v250h50v-250h50v250h100v-300h-350v300z" />
<glyph unicode="&#x429;" d="M50 300h100v-250h50v250h50v-250h50v250h100v-350h-50v50h-300v300z" />
<glyph unicode="&#x42a;" d="M50 300h150v-100h150v-50h50v-100h-50v-50h-250v250h-50v50zM200 50h100v100h-100v-100z" />
<glyph unicode="&#x42b;" d="M50 300h100v-100h50v-50h50v-100h-50v-50h-150v300zM300 300h100v-300h-100v300zM200 150h-50v-100h50v100z" />
<glyph unicode="&#x42c;" d="M50 300h100v-100h200v-50h50v-100h-50v-50h-300v300zM150 50h150v100h-150v-100z" />
<glyph unicode="&#x42d;" d="M50 250h50v50h250v-50h50v-200h-50v-50h-250v50h-50v50h100v-50h150v100h-100v50h100v50h-150v-50h-100v50z" />
<glyph unicode="&#x42e;" d="M50 300h100v-100h50v50h50v50h100v-50h50v-200h-50v-50h-100v50h-50v100h-50v-150h-100v300zM350 250h-50v-200h50v200z" />
<glyph unicode="&#x42f;" d="M50 250h50v50h300v-300h-100v100h-100v-50h-50v-50h-100v50h50v100h-50v100zM300 250h-150v-100h150v100z" />
<glyph unicode="&#x430;" d="M100 250h200v-50h50v-200h-250v50h-50v50h50v50h150v50h-150v50zM150 100v-50h100v50h-100z" />
<glyph unicode="&#x431;" d="M50 250h50v50h250v-50h-200v-50h150v-50h50v-100h-50v-50h-200v50h-50v100h50v50h-50v50zM150 150v-100h100v100h-100z" />
<glyph unicode="&#x432;" d="M50 250h250v-50h50v-50h-50v-50h50v-50h-50v-50h-250v250zM150 200v-50h100v50h-100zM150 100v-50h100v50h-100z" />
<glyph unicode="&#x433;" d="M50 250h300v-50h-200v-200h-100v250z" />
<glyph unicode="&#x434;" d="M50 50h50v150h50v50h200v-200h50v-100h-100v50h-150v-50h-100v100zM250 200h-50v-150h50v150z" />
<glyph unicode="&#x435;" d="M50 200h50v50h200v-50h50v-50h-50v-50h-150v-50h200v-50h-250v50h-50v150zM150 200v-50h100v50h-100z" />
<glyph unicode="&#x436;" d="M50 250h100v-100h50v100h50v-100h50v100h100v-100h-50v-50h50v-100h-100v100h-50v-100h-50v100h-50v-100h-100v100h50v50h-50v100z" />
<glyph unicode="&#x437;" d="M100 150h150v50h-200v50h250v-50h50v-50h-50v-50h50v-50h-50v-50h-250v50h200v50h-150v50z" />
<glyph unicode="&#x438;" d="M50 250h100v-100h50v50h50v50h100v-250h-100v100h-50v-50h-50v-50h-100v250z" />
<glyph unicode="&#x439;" d="M50 250h100v-100h50v50h50v50h100v-250h-100v100h-50v-50h-50v-50h-100v250zM100 400h50v-50h100v50h50v-50h-50v-50h-100v50h-50v50z" />
<glyph unicode="&#x43a;" d="M50 250h100v-100h50v50h50v50h100v-50h-50v-50h-50v-50h50v-50h50v-50h-100v50h-50v50h-50v-100h-100v250z" />
<glyph unicode="&#x43b;" d="M50 150h50v50h50v50h200v-250h-100v200h-50v-50h-50v-150h-100v150z" />
<glyph unicode="&#x43c;" d="M50 250h100v-50h50v-50h50v50h50v50h100v-250h-100v150h-50v-50h-50v50h-50v-150h-100v250z" />
<glyph unicode="&#x43d;" d="M50 250h100v-100h100v100h100v-250h-100v100h-100v-100h-100v250z" />
<glyph unicode="&#x43e;" d="M50 200h50v50h200v-50h50v-150h-50v-50h-200v50h-50v150zM250 200h-100v-150h100v150z" />
<glyph unicode="&#x43f;" d="M50 250h300v-250h-100v200h-100v-200h-100v250z" />
<glyph unicode="&#x440;" d="M50 250h250v-50h50v-100h-50v-50h-150v-100h-100v300zM150 100h100v100h-100v-100z" />
<glyph unicode="&#x441;" d="M50 200h50v50h250v-50h-200v-150h200v-50h-250v50h-50v150z" />
<glyph unicode="&#x442;" d="M50 250h300v-50h-100v-200h-100v200h-100v50z" />
<glyph unicode="&#x443;" d="M50 250h100v-150h100v150h100v-250h-50v-50h-200v50h150v50h-150v50h-50v150z" />
<glyph unicode="&#x444;" d="M50 200h50v50h100v50h50v-50h100v-50h50v-150h-50v-50h-100v-50h-50v50h-100v50h-50v150zM300 200h-50v-150h50v150zM200 200h-50v-150h50v150z" />
<glyph unicode="&#x445;" d="M50 250h100v-50h100v50h100v-50h-50v-50h-50v-50h50v-50h50v-50h-100v50h-100v-50h-100v50h50v50h50v50h-50v50h-50v50z" />
<glyph unicode="&#x446;" d="M50 250h100v-200h100v200h100v-200h50v-100h-100v50h-250v250z" />
<glyph unicode="&#x447;" d="M50 250h100v-100h100v100h100v-250h-100v100h-150v50h-50v100z" />
<glyph unicode="&#x448;" d="M50 250h100v-200h50v200h50v-200h50v200h100v-250h-350v250z" />
<glyph unicode="&#x449;" d="M50 250h100v-200h50v200h50v-200h50v200h100v-300h-50v50h-300v250z" />
<glyph unicode="&#x44a;" d="M50 250h150v-100h150v-50h50v-50h-50v-50h-250v200h-50v50zM200 50h100v50h-100v-50z" />
<glyph unicode="&#x44b;" d="M0 250h100v-100h100v-50h50v-50h-50v-50h-200v250zM300 250h100v-250h-100v250zM100 50h50v50h-50v-50z" />
<glyph unicode="&#x44c;" d="M50 250h100v-100h150v-50h50v-50h-50v-50h-250v250zM150 50h100v50h-100v-50z" />
<glyph unicode="&#x44d;" d="M150 150h100v50h-150v-50h-50v50h50v50h200v-50h50v-150h-50v-50h-200v50h-50v50h50v-50h150v50h-100v50z" />
<glyph unicode="&#x44e;" d="M50 250h100v-100h50v50h50v50h100v-50h50v-150h-50v-50h-100v50h-50v50h-50v-100h-100v250zM350 200h-50v-150h50v150z" />
<glyph unicode="&#x44f;" d="M50 200h50v50h250v-250h-100v100h-50v-50h-50v-50h-100v50h50v100h-50v50zM150 150h100v50h-100v-50z" />
<glyph unicode="&#x451;" d="M50 200h50v50h200v-50h50v-50h-50v-50h-150v-50h200v-50h-250v50h-50v150zM150 200v-50h100v50h-100zM250 350h50v-50h-50v50zM100 350h50v-50h-50v50z" />
<glyph unicode="&#x452;" d="M50 250h50v50h100v-50h100v-50h50v-250h-50v-50h-150v50h100v250h-50v-200h-100v200h-50v50z" />
<glyph unicode="&#x453;" d="M50 250h300v-50h-200v-200h-100v250zM150 350h50v50h100v-50h-50v-50h-100v50z" />
<glyph unicode="&#x454;" d="M50 200h50v50h200v-50h50v-50h-50v50h-150v-50h100v-50h-100v-50h150v50h50v-50h-50v-50h-200v50h-50v150z" />
<glyph unicode="&#x455;" d="M50 200h50v50h200v-50h-150v-50h150v-50h50v-50h-50v-50h-250v50h200v50h-150v50h-50v50z" />
<glyph unicode="&#x456;" d="M100 200h150v-150h50v-50h-200v50h50v100h-50v50zM150 300h100v-50h-100v50z" />
<glyph unicode="&#x457;" d="M100 200h200v-50h-50v-100h50v-50h-200v50h50v100h-50v50zM250 300h50v-50h-50v50zM100 300h50v-50h-50v50z" />
<glyph unicode="&#x458;" d="M50 50h100v-50h50v200h100v-200h-50v-50h-150v50h-50v50zM200 300h100v-50h-100v50z" />
<glyph unicode="&#x459;" d="M50 50h50v200h200v-100h100v-150h-200v200h-50v-200h-100v50zM300 50h50v50h-50v-50z" />
<glyph unicode="&#x45a;" d="M50 250h50v-100h50v100h100v-100h100v-150h-200v100h-50v-100h-50v250zM250 50h50v50h-50v-50z" />
<glyph unicode="&#x45b;" d="M50 250h50v50h100v-50h100v-50h50v-200h-100v200h-50v-200h-100v200h-50v50z" />
<glyph unicode="&#x45c;" d="M50 250h100v-100h50v50h50v50h100v-50h-50v-50h-50v-50h50v-50h50v-50h-100v50h-50v50h-50v-100h-100v250zM150 350h50v50h100v-50h-50v-50h-100v50z" />
<glyph unicode="&#x45e;" d="M50 250h100v-150h100v150h100v-250h-50v-50h-200v50h150v50h-150v50h-50v150zM100 400h50v-50h100v50h50v-50h-50v-50h-100v50h-50v50z" />
<glyph unicode="&#x45f;" d="M50 250h100v-200h100v200h100v-250h-100v-100h-100v100h-100v250z" />
<glyph unicode="&#x490;" d="M50 300h250v50h100v-100h-250v-250h-100v300z" />
<glyph unicode="&#x491;" d="M50 250h200v50h100v-100h-200v-200h-100v250z" />
<glyph unicode="&#x2013;" d="M50 150h300v-50h-300v50z" />
<glyph unicode="&#x2014;" d="M50 150h350v-50h-350v50z" />
<glyph unicode="&#x2018;" d="M100 350h100v-100h50v-50h-100v50h-50v100z" />
<glyph unicode="&#x2019;" d="M100 200h50v100h100v-100h-50v-50h-100v50z" />
<glyph unicode="&#x201a;" d="M150 50h50v100h100v-100h-50v-50h-100v50z" />
<glyph unicode="&#x201c;" d="M50 350h100v-100h50v100h100v-100h50v-50h-100v50h-50v-50h-100v50h-50v100z" />
<glyph unicode="&#x201d;" d="M50 200h50v100h100v-100h50v100h100v-100h-50v-50h-100v50h-50v-50h-100v50z" />
<glyph unicode="&#x201e;" d="M50 50h50v100h100v-100h50v100h100v-100h-50v-50h-100v50h-50v-50h-100v50z" />
<glyph unicode="&#x2020;" d="M50 250h100v50h100v-50h100v-50h-100v-200h-100v200h-100v50z" />
<glyph unicode="&#x2021;" d="M50 250h100v50h100v-50h100v-50h-100v-100h100v-50h-100v-50h-100v50h-100v50h100v100h-100v50z" />
<glyph unicode="&#x2022;" d="M100 200h50v50h100v-50h50v-100h-50v-50h-100v50h-50v100z" />
<glyph unicode="&#x2026;" d="M50 50h300v-50h-300v50z" />
<glyph unicode="&#x2030;" d="M50 50h50v50h50v50h50v50h50v50h50v50h100v-50h-50v-50h-50v-50h-50v-50h50v-100h-50v100h-50v-50h-50v-50h-100v50zM50 300h50v-100h-50v100zM350 100h50v-100h-50v100z" />
<glyph unicode="&#x2039;" d="M150 200h50v50h50v50h100v-50h-50v-50h-50v-100h50v-50h50v-50h-100v50h-50v50h-50v100z" />
<glyph unicode="&#x203a;" d="M100 300h100v-50h50v-50h50v-100h-50v-50h-50v-50h-100v50h50v50h50v100h-50v50h-50v50z" />
<glyph unicode="&#x20ac;" d="M50 200h50v50h50v50h250v-50h-200v-50h150v-50h-150v-50h150v-50h-150v-50h200v-50h-250v50h-50v50h-50v50h50v50h-50v50z" />
<glyph unicode="&#x2116;" d="M50 300h100v-50h50v-50h50v100h150v-50h-50v-250h-100v100h-50v50h-50v-150h-100v300z" />
<glyph unicode="&#x2122;" d="M0 250h200v-50h50v-50h50v50h50v50h50v-200h-50v100h-50v-100h-50v100h-50v-100h-50v150h-50v-150h-50v150h-50v50z" />
<glyph unicode="&#x2212;" horiz-adv-x="833" />
<glyph unicode="&#x25fc;" horiz-adv-x="250" d="M0 250h250v-250h-250v250z" />
<glyph />
<glyph />
</font>
</defs>
</svg>
